<svg width="640" height="724" xmlns="http://www.w3.org/2000/svg" preserveAspectRatio="xMidYMid meet" version="1.0">
 <metadata>Created by potrace 1.16, written by Peter Selinger 2001-2019</metadata>

 <g>
  <title>Layer 1</title>
  <g id="svg_1" fill="#000000" transform="translate(0 724) scale(0.1 -0.1)">
   <path id="svg_2" d="m4361,6759c-12,-28 -11,-32 8,-53c27,-29 27,-64 0,-93c-17,-17 -19,-25 -10,-36c14,-18 99,-11 120,9c17,15 24,61 10,69c-5,4 -9,14 -9,23c0,15 -87,112 -100,112c-3,0 -11,-14 -19,-31z"/>
   <path id="svg_3" d="m4650,6551c0,-38 -5,-61 -12,-65c-10,-5 -10,-7 0,-12c6,-3 12,-12 12,-20c0,-8 7,-14 15,-14c8,0 15,-4 15,-10c0,-15 53,-12 88,6c39,19 41,45 7,72c-14,11 -25,27 -25,35c0,8 -8,17 -17,21c-10,3 -33,15 -50,26l-33,20l0,-59z"/>
   <path id="svg_4" d="m1834,6427c-11,-12 -27,-26 -37,-30c-9,-4 -20,-15 -24,-24c-4,-10 -17,-27 -30,-38c-43,-38 -25,-119 29,-130c52,-12 68,-26 68,-62c0,-18 -4,-33 -10,-33c-5,0 -10,-5 -10,-12c0,-7 -11,-24 -26,-39c-28,-30 -26,-65 7,-95c10,-9 19,-23 19,-31c0,-8 4,-12 9,-9c4,3 11,29 13,58c3,29 11,54 17,56c14,5 15,168 1,177c-5,3 -10,31 -10,61c0,51 1,54 25,54c42,0 43,22 6,99c-12,24 -28,23 -47,-2z"/>
   <path id="svg_5" d="m3452,6438c-21,-21 -13,-43 33,-88c24,-24 42,-47 39,-51c-2,-4 0,-10 6,-14c34,-21 -42,-45 -80,-25c-19,10 -28,8 -65,-19c-24,-17 -54,-31 -67,-31c-28,0 -99,58 -80,66c15,7 17,94 1,94c-7,0 -10,12 -7,30c3,20 0,30 -8,30c-14,0 -44,-54 -44,-81c0,-10 -4,-20 -9,-23c-15,-10 0,-48 28,-72c39,-34 18,-48 -67,-46c-59,2 -72,-1 -88,-19c-10,-12 -31,-27 -46,-35c-25,-13 -32,-12 -70,6c-46,22 -83,26 -93,9c-15,-23 -30,0 -30,47c-1,47 -20,94 -38,94c-5,0 -6,-12 -3,-26c5,-19 1,-30 -16,-44c-20,-16 -21,-22 -10,-39c13,-23 17,-91 4,-91c-4,0 -15,-18 -25,-40c-13,-31 -22,-40 -42,-40c-14,0 -25,-2 -25,-4c0,-3 16,-22 35,-43c19,-21 33,-42 32,-48c-2,-5 -18,-18 -35,-28c-32,-19 -32,-19 -52,5c-11,12 -19,29 -20,36c0,6 -4,12 -10,12c-5,0 -10,6 -10,14c0,7 -7,19 -15,26c-13,10 -19,10 -34,-4c-19,-17 -62,-14 -88,7c-9,7 -13,5 -13,-7c0,-9 11,-22 25,-28c14,-6 25,-18 25,-26c0,-8 -11,-25 -25,-38c-14,-13 -25,-31 -25,-41c0,-11 -13,-23 -32,-31c-18,-7 -41,-18 -50,-23c-10,-5 -36,-9 -59,-9c-32,0 -42,4 -46,20c-7,27 -26,25 -38,-2c-6,-14 -21,-24 -37,-26c-28,-3 -36,-16 -19,-27c15,-9 9,-48 -9,-70c-10,-11 -23,-35 -31,-53c-10,-24 -28,-40 -69,-59c-30,-15 -67,-38 -83,-52c-21,-19 -30,-22 -39,-13c-7,7 -22,12 -35,12c-24,0 -28,-11 -24,-63c1,-16 -2,-34 -7,-40c-5,-7 -13,-23 -17,-36c-15,-47 -53,-74 -114,-79c-67,-5 -81,-15 -81,-56c0,-38 -57,-156 -76,-156c-8,0 -14,-7 -14,-15c0,-8 -7,-15 -15,-15c-8,0 -15,-3 -15,-8c0,-4 -10,-12 -22,-17c-18,-8 -24,-20 -26,-50c-1,-22 -11,-58 -22,-80c-10,-22 -21,-60 -24,-85c-3,-25 -7,-52 -9,-60c-10,-37 -20,-60 -26,-60c-15,0 -34,-69 -40,-143c-6,-76 -8,-81 -36,-98c-16,-10 -40,-18 -52,-18c-25,-1 -29,-11 -11,-29c9,-9 8,-18 -2,-37c-11,-21 -12,-30 -2,-45c15,-25 15,-63 0,-78c-8,-8 -14,-59 -16,-140c-2,-70 -9,-133 -15,-140c-5,-7 -9,-43 -9,-79c1,-37 -4,-73 -10,-80c-6,-7 -10,-48 -10,-91c1,-42 -4,-92 -10,-109c-9,-26 -9,-36 0,-45c7,-7 12,-38 12,-70c0,-37 6,-69 18,-90c10,-18 22,-51 25,-74c8,-49 30,-94 57,-119c11,-10 20,-23 20,-28c0,-6 10,-24 23,-41c12,-17 28,-42 35,-56c28,-53 73,-90 112,-90c11,0 23,-7 26,-15c4,-8 12,-15 18,-15c14,0 18,67 5,76c-5,3 -9,15 -9,27c0,12 -9,33 -20,47c-21,27 -26,65 -10,75c6,3 10,50 10,105c0,55 4,102 10,105c6,3 10,33 10,65c0,56 9,86 51,173c11,22 19,54 19,72c0,50 16,83 41,87c22,3 28,11 46,58c6,14 22,51 36,83c15,31 27,66 27,77c0,11 5,29 10,40c6,11 15,29 20,40c6,12 8,25 5,30c-3,5 -1,11 5,15c5,3 10,28 10,55c0,27 5,52 10,55c6,3 10,19 10,36c0,19 5,29 15,29c12,0 15,15 15,74c0,41 5,78 10,81c6,3 10,-4 10,-18c0,-13 8,-32 19,-41c10,-9 22,-31 25,-49c7,-33 139,-177 162,-177c6,0 17,-6 23,-14c6,-8 49,-32 94,-54c80,-40 163,-60 262,-64c22,0 55,-9 73,-20c18,-10 43,-18 57,-18c13,0 27,-5 31,-11c3,-6 16,-8 28,-4c11,4 39,11 61,15c49,11 111,26 145,35c14,4 39,9 56,12c21,3 49,22 80,54c27,27 54,49 61,49c7,0 13,9 13,19c0,11 5,23 10,26c6,3 10,15 10,25c0,11 19,47 43,80c41,59 90,140 103,170c3,8 18,40 32,70c15,30 26,58 24,62c-1,4 7,24 18,43c11,20 20,52 20,71c0,41 12,68 48,107c21,22 34,27 72,27c40,0 51,-5 83,-38c20,-21 37,-45 37,-54c0,-9 5,-20 10,-23c6,-3 10,-33 10,-65c0,-32 5,-62 11,-65c6,-4 8,-13 5,-20c-3,-8 2,-19 10,-25c8,-7 14,-25 14,-41c0,-15 5,-31 11,-34c6,-4 8,-13 5,-20c-3,-8 2,-19 10,-26c8,-7 26,-36 39,-65c13,-29 29,-55 34,-59c6,-3 22,-30 35,-58c13,-29 31,-59 40,-66c9,-7 16,-19 16,-25c0,-7 16,-27 35,-46c19,-19 35,-40 35,-47c0,-7 5,-13 11,-13c14,0 36,-26 49,-56c7,-19 20,-22 111,-28c57,-3 108,-11 113,-16c13,-13 203,-13 211,0c3,5 28,10 55,10c27,0 51,4 54,8c3,5 19,7 37,4c17,-3 34,-1 38,4c11,15 50,34 71,34c11,0 29,5 40,10c35,17 64,33 85,44c31,17 155,139 155,152c0,7 11,25 23,41c13,15 30,43 38,61c17,40 24,40 43,0c18,-36 20,-64 6,-73c-14,-9 -13,-78 2,-93c9,-9 9,-15 0,-24c-16,-16 -16,-160 -1,-175c16,-16 14,-279 -2,-299c-9,-11 -9,-21 1,-44c9,-21 9,-34 2,-43c-7,-8 -7,-18 -2,-27c6,-8 10,-25 10,-37c0,-21 5,-23 50,-23l50,0l0,48c0,46 21,96 32,76c3,-5 1,-51 -5,-103c-8,-80 -7,-99 7,-128c18,-38 21,-79 6,-88c-5,-3 -9,-43 -8,-88c1,-88 20,-127 61,-127c18,0 76,55 77,73c0,4 6,7 13,7c7,0 43,30 80,68c63,63 67,70 67,113c0,35 5,51 24,68c20,19 25,36 31,107c4,46 11,86 16,90c13,7 11,1001 -1,1009c-13,8 -13,52 0,60c13,8 13,52 0,60c-7,4 -11,45 -11,98c0,111 -8,189 -20,202c-12,12 -11,62 1,70c6,3 10,19 10,35c0,16 -4,32 -10,35c-5,3 -10,42 -10,85c0,43 -4,81 -9,84c-5,3 -12,34 -16,68c-5,42 -14,68 -26,79c-15,13 -19,30 -19,83c0,37 -4,66 -10,66c-5,0 -10,6 -10,13c0,7 -14,26 -30,42c-26,25 -32,27 -40,15c-5,-8 -10,-19 -10,-23c0,-23 -50,-50 -50,-27c0,6 -8,10 -19,10c-20,0 -31,25 -31,73c0,36 34,37 71,1c15,-14 32,-23 38,-19c23,14 -5,120 -34,131c-8,4 -15,12 -15,20c0,8 -4,14 -10,14c-16,0 -84,73 -103,110c-56,111 -87,130 -87,52c0,-26 -5,-53 -11,-59c-8,-8 -8,-13 0,-17c14,-9 14,-26 1,-26c-5,0 -10,7 -10,15c0,9 -9,15 -25,15c-15,0 -25,6 -25,14c0,8 -6,17 -12,20c-10,5 -10,7 0,12c14,7 18,174 3,174c-8,0 -22,30 -26,60c-5,35 -18,58 -33,62c-10,3 -21,6 -27,8c-26,7 -59,-100 -35,-115c6,-3 10,-25 10,-49c0,-32 6,-48 23,-64c13,-12 28,-22 34,-22c16,0 24,-42 11,-57c-6,-7 -17,-13 -24,-13c-8,0 -14,-7 -14,-15c0,-8 6,-15 13,-15c7,0 28,-16 47,-35c19,-19 40,-35 47,-35c8,0 13,-12 13,-29c0,-17 5,-33 10,-36c15,-10 12,-101 -4,-114c-10,-8 -16,-9 -21,-1c-3,5 -19,10 -34,10c-15,0 -32,5 -39,12c-9,9 -15,9 -24,0c-14,-14 -64,-16 -73,-2c-3,5 8,24 25,42l31,32l-31,24c-17,13 -30,29 -29,35c1,7 -2,21 -6,32c-14,43 -180,90 -206,59c-6,-8 -15,-12 -18,-9c-13,7 -12,88 1,96c16,10 -30,62 -48,55c-7,-3 -24,1 -38,7c-27,13 -35,44 -15,64c11,11 5,33 -9,33c-4,0 -12,-10 -17,-22c-9,-20 -19,-23 -70,-26c-78,-4 -105,3 -105,28c0,11 -4,20 -10,20c-5,0 -10,7 -10,15c0,8 -5,15 -12,15c-18,0 -68,52 -68,71c0,15 -4,15 -25,6c-19,-9 -25,-20 -25,-44c0,-23 5,-33 15,-33c8,0 15,-7 15,-15c0,-8 -6,-15 -13,-15c-7,0 -17,-10 -22,-22c-8,-17 -20,-24 -50,-26c-22,-2 -45,-8 -51,-13c-7,-6 -15,-6 -18,-1c-3,5 -25,12 -48,16c-55,9 -81,31 -67,57c12,24 90,27 109,4c17,-20 69,-19 77,1c3,8 1,20 -6,27c-6,6 -11,27 -11,46c0,27 -3,32 -12,23c-17,-17 -83,-15 -98,3c-7,8 -21,15 -31,15c-10,0 -21,5 -24,10c-3,6 -17,10 -30,10c-13,0 -27,5 -30,10c-10,16 -37,11 -62,-11c-16,-16 -26,-19 -35,-12c-15,13 -48,2 -67,-21c-7,-9 -21,-16 -30,-16c-18,1 -61,34 -61,48c0,5 -9,17 -20,27c-20,18 -21,18 -44,-4c-29,-27 -60,-24 -64,7c-4,24 -21,29 -40,10zm303,-558c3,-5 28,-10 55,-10c27,0 51,-4 54,-9c3,-5 45,-9 93,-10c124,-2 170,-11 223,-42c8,-5 38,-21 67,-35c29,-14 57,-32 64,-40c6,-8 17,-14 24,-14c6,0 20,-9 30,-20c10,-11 23,-20 29,-20c14,0 136,-121 136,-135c0,-7 11,-22 25,-35c14,-13 25,-27 25,-32c0,-12 54,-63 73,-71c9,-3 19,-22 22,-41c4,-19 14,-41 22,-48c8,-7 19,-21 24,-33c11,-25 32,-58 41,-65c3,-3 8,-21 10,-40c3,-34 2,-35 -40,-41c-24,-3 -45,-2 -48,3c-3,4 -25,8 -49,8c-24,0 -47,5 -50,10c-3,6 -37,10 -76,10c-39,0 -69,4 -69,10c0,6 -7,10 -15,10c-8,0 -15,-4 -15,-10c0,-13 -113,-13 -125,-1c-6,6 -52,13 -103,17c-51,4 -95,11 -98,15c-3,5 -14,4 -25,-1c-10,-6 -34,-11 -51,-11c-59,0 -143,-11 -153,-20c-5,-5 -25,-9 -45,-9c-20,0 -41,-5 -47,-11c-15,-15 -536,-18 -554,-2c-8,6 -43,14 -79,17c-154,12 -276,28 -284,37c-6,5 -152,9 -341,9c-244,0 -334,3 -343,12c-16,16 -15,28 1,28c7,0 31,18 52,40c21,22 44,40 50,40c6,0 33,23 60,50c27,28 53,50 58,50c9,0 54,34 96,72c35,32 90,68 103,68c22,0 95,40 118,65c13,14 28,25 34,25c6,0 28,11 48,25c20,14 46,25 58,25c11,0 52,16 91,36c42,21 92,37 122,40c29,3 61,9 72,14c11,5 34,11 50,15c17,3 50,11 75,16c25,5 75,9 112,9c36,-1 68,2 71,7c3,4 47,9 99,11c51,2 97,8 103,13c12,12 112,12 120,-1zm1343,-150c19,-18 62,-98 62,-116c0,-4 9,-14 20,-24c19,-16 25,-37 22,-70c-3,-19 -50,-42 -58,-29c-3,6 -13,7 -22,5c-19,-6 -42,33 -42,70c0,13 -4,26 -10,29c-12,7 -14,155 -2,155c5,0 18,-9 30,-20zm-2038,-1319c0,-22 -6,-44 -15,-51c-8,-7 -15,-17 -15,-23c0,-13 -90,-107 -102,-107c-4,0 -24,-11 -44,-25c-22,-15 -51,-25 -72,-25c-23,0 -44,-8 -59,-22c-17,-16 -39,-23 -82,-26c-34,-2 -61,0 -65,6c-18,30 41,72 102,72c55,0 94,22 220,124c41,32 76,66 80,75c6,17 32,40 45,41c4,0 7,-17 7,-39zm919,-116c6,-34 22,-45 66,-45c29,0 47,-6 60,-20c23,-25 113,-70 141,-70c12,0 27,-7 34,-15c7,-8 24,-15 39,-15c15,0 32,-5 39,-12c8,-8 15,-8 26,1c10,8 16,9 21,1c15,-23 -11,-30 -119,-30c-99,0 -115,2 -130,19c-10,11 -36,23 -58,26c-22,4 -49,16 -59,26c-10,10 -22,19 -25,19c-4,0 -37,31 -75,68c-49,49 -66,71 -58,79c17,17 93,-8 98,-32zm681,20c15,-18 57,-20 62,-4c7,22 48,-14 48,-41c-1,-24 -50,-90 -68,-90c-5,0 -17,-9 -27,-20c-10,-12 -24,-19 -31,-16c-14,5 -64,-15 -64,-26c0,-5 -34,-8 -75,-8c-74,0 -105,16 -42,22c22,2 35,10 42,26c6,13 18,22 32,22c27,0 29,16 6,42c-15,17 -15,21 0,54c24,49 90,72 117,39z"/>
   <path id="svg_6" d="m1589,6181c-22,-23 -35,-45 -44,-71c-23,-68 -47,-111 -63,-117c-28,-10 -72,-56 -72,-75c0,-10 -4,-26 -9,-36c-19,-38 -30,-69 -36,-104c-4,-27 -13,-41 -33,-51c-21,-10 -26,-19 -24,-39c1,-15 -2,-29 -8,-33c-5,-3 -10,-31 -10,-61c0,-54 -14,-84 -39,-84c-6,0 -11,-9 -11,-19c0,-11 -4,-23 -10,-26c-13,-8 -13,-82 1,-91c6,-3 9,-15 6,-25c-8,-29 8,-31 29,-5c30,36 41,59 38,81c-5,33 24,55 72,55c38,0 44,3 56,31c8,18 26,36 46,44c17,8 32,21 32,30c0,8 6,24 12,35c10,16 10,24 0,40c-16,26 -15,40 4,61c14,16 14,21 -2,54c-14,30 -15,41 -6,56c7,10 12,27 12,38c0,18 25,32 60,35c10,1 16,14 18,44c3,40 4,42 36,42c35,0 66,23 46,35c-13,8 -13,85 0,85c20,0 9,45 -17,72c-34,35 -51,35 -84,-1z"/>
   <path id="svg_7" d="m3687,3963c-15,-8 -35,-26 -44,-41c-9,-15 -23,-34 -30,-42c-7,-8 -23,-27 -34,-42c-14,-19 -29,-28 -49,-28c-16,0 -32,-4 -35,-10c-3,-5 -17,-10 -30,-10c-13,0 -27,-4 -30,-10c-8,-12 -52,-13 -59,-1c-3,4 -19,11 -34,14c-21,4 -33,15 -43,38c-16,40 -66,99 -84,99c-7,0 -18,7 -25,15c-20,24 -56,18 -94,-16c-37,-32 -52,-61 -47,-94c5,-35 23,-47 59,-41c57,9 92,-3 92,-30c0,-23 -4,-24 -59,-24c-40,0 -63,5 -71,15c-16,19 -90,21 -90,2c0,-18 52,-67 71,-67c32,0 50,-34 46,-91c-4,-68 -9,-76 -52,-81c-33,-4 -35,-2 -35,24c0,34 -23,46 -45,24c-9,-9 -31,-16 -49,-16c-19,0 -39,-7 -46,-15c-7,-8 -28,-15 -47,-15c-25,0 -36,-5 -39,-18c-5,-15 -74,-52 -100,-52c-15,0 -94,-84 -94,-100c0,-9 -14,-21 -31,-29c-17,-7 -40,-28 -51,-46c-10,-18 -25,-36 -33,-39c-11,-4 -15,-21 -15,-59c0,-62 -13,-79 -100,-124c-44,-23 -56,-34 -58,-57c-2,-15 2,-34 9,-42c10,-12 8,-19 -10,-35c-12,-12 -27,-32 -32,-46c-5,-14 -18,-27 -29,-30c-13,-3 -20,-14 -20,-29c0,-12 -4,-26 -10,-29c-24,-15 -9,-34 30,-37c51,-4 53,-22 2,-26c-28,-2 -40,-9 -47,-25c-7,-14 -21,-23 -40,-25c-32,-4 -75,-37 -75,-59c0,-7 -4,-13 -10,-13c-5,0 -10,6 -10,13c0,21 -46,59 -67,55c-25,-5 -26,-48 -1,-75c20,-21 20,-24 4,-57c-9,-19 -21,-38 -26,-41c-16,-10 -12,-61 6,-76c12,-10 20,-10 35,-1c24,15 44,15 56,0c14,-17 -17,-72 -43,-76c-46,-7 -64,-13 -64,-22c0,-6 6,-10 13,-10c7,0 25,-5 39,-12c28,-14 35,-50 12,-69c-8,-7 -14,-31 -14,-59l0,-48l55,-28c70,-35 80,-28 84,59c1,12 9,17 28,17c26,0 26,0 7,-21c-10,-12 -18,-31 -16,-44c2,-13 -2,-26 -7,-30c-6,-3 -11,-16 -11,-29c0,-12 -5,-27 -12,-34c-9,-9 -6,-17 12,-37c13,-14 21,-28 17,-31c-3,-4 -2,-15 4,-26c13,-24 52,-18 84,12c20,19 21,19 33,0c6,-11 9,-26 6,-34c-9,-22 15,-30 36,-11c37,33 72,-8 63,-72c-5,-32 -4,-33 31,-33c34,0 36,2 36,34c0,18 7,39 15,46c8,7 15,18 15,24c0,6 9,17 19,23c13,8 19,21 17,40c-3,26 -6,27 -45,24c-41,-2 -41,-2 -41,31c0,44 20,86 43,92c10,2 21,14 24,25c8,30 33,26 33,-4c0,-16 -6,-25 -15,-25c-8,0 -15,-4 -15,-10c0,-19 41,-10 74,15c18,14 37,25 42,25c5,0 17,14 26,30c10,17 25,33 35,37c10,3 24,11 31,17c16,11 127,20 150,11c22,-8 -45,-75 -75,-75c-40,0 -26,-27 19,-35c12,-3 36,-19 54,-36c27,-26 36,-30 48,-20c8,7 18,26 21,42c4,16 11,29 16,29c5,0 9,15 9,33c0,23 8,41 25,57c41,38 34,74 -25,129c-44,42 -50,52 -50,88c0,23 -4,45 -10,48c-14,8 -13,48 2,63c18,18 -9,42 -48,42c-19,0 -51,11 -72,24c-20,13 -51,29 -67,36c-31,13 -55,49 -55,81c0,10 -4,20 -8,23c-27,16 46,166 79,166c5,0 32,11 61,24c29,13 67,27 83,30c17,4 39,9 50,11c11,3 34,7 50,11c17,3 63,21 102,40c40,19 79,34 86,34c8,0 17,3 21,7c11,11 95,13 101,3c8,-13 232,-13 240,0c3,6 19,10 35,10c16,0 32,-4 35,-10c3,-5 17,-10 30,-10c13,0 27,-4 30,-10c3,-5 28,-12 56,-16c41,-6 55,-13 76,-40c22,-29 31,-34 69,-34c23,0 45,-4 48,-9c6,-9 45,-18 126,-27c34,-5 54,-15 83,-42c20,-20 37,-40 37,-45c0,-4 11,-23 25,-41c14,-18 25,-44 25,-57c0,-14 5,-30 11,-36c8,-8 5,-13 -10,-18c-12,-3 -35,-18 -52,-33c-24,-20 -42,-26 -73,-25c-30,2 -47,-4 -66,-21c-14,-13 -37,-26 -51,-29c-21,-5 -26,-12 -26,-38c0,-31 -17,-51 -37,-43c-16,6 -36,-44 -36,-91c0,-36 -6,-48 -45,-86c-25,-24 -53,-45 -62,-45c-10,-1 -22,-2 -27,-3c-5,-1 -3,-8 4,-16c9,-10 9,-15 1,-15c-6,0 -11,-7 -11,-15c0,-8 -7,-15 -15,-15c-11,0 -15,-11 -15,-43c0,-34 4,-44 23,-52c31,-14 33,-46 2,-75c-34,-32 -34,-70 0,-70c15,0 25,6 25,14c0,7 7,19 15,26c10,8 15,30 15,64c0,46 3,55 30,74c43,32 58,28 62,-15l3,-38l71,3c54,2 74,-1 84,-13c7,-8 28,-15 46,-15c32,0 34,2 34,33c1,40 20,67 49,67c16,0 21,-6 21,-24c0,-14 4,-27 10,-31c5,-3 7,-12 4,-19c-3,-8 -1,-17 5,-21c6,-3 11,-35 11,-70c0,-35 4,-67 10,-70c10,-6 -6,-43 -24,-56c-4,-4 -3,-10 3,-13c15,-9 14,-53 -1,-58c-24,-8 5,-28 41,-28c33,0 39,4 51,35c14,36 24,43 35,25c3,-5 14,-10 24,-10c10,0 32,-7 49,-16c41,-20 56,-10 49,32c-5,31 -3,34 19,34c13,0 24,-4 24,-10c0,-19 42,-10 47,10c4,15 14,20 39,20c19,0 34,5 34,10c0,6 18,10 40,10c40,0 40,0 40,38c0,47 18,86 44,98c29,13 33,44 6,44c-27,0 -36,25 -17,45c22,21 48,19 54,-5c9,-35 21,-22 28,30c4,27 11,52 16,56c14,8 11,158 -3,172c-9,9 -9,12 0,12c7,0 12,6 12,13c0,8 11,24 25,37c19,18 25,34 25,66c0,31 7,51 25,72c35,42 33,96 -3,60c-10,-10 -17,-8 -34,9c-18,18 -19,24 -8,37c7,9 25,16 41,16c22,0 29,5 29,19c0,11 4,23 10,26c17,10 11,25 -10,25c-10,0 -23,8 -29,18c-9,15 -13,15 -32,3c-21,-13 -25,-11 -56,25c-22,27 -33,49 -33,72c0,36 10,41 27,13c14,-22 67,-51 94,-51c10,0 21,-5 24,-11c11,-17 45,21 45,51c0,21 -7,29 -35,40c-33,13 -35,16 -35,61c0,30 6,51 15,59c21,18 17,120 -5,130c-8,4 -26,12 -39,19c-17,9 -26,10 -34,2c-6,-6 -41,-11 -77,-11c-69,0 -120,-16 -120,-38c0,-7 -7,-15 -15,-18c-8,-4 -15,-15 -15,-25c0,-26 -13,-24 -25,3c-6,13 -23,29 -38,36c-26,13 -31,12 -52,-8l-22,-21l-29,23c-58,46 -70,49 -83,22c-6,-14 -11,-36 -11,-49c0,-13 -11,-36 -25,-51l-25,-27l0,25c0,14 7,31 15,38c9,7 15,29 15,54c0,23 5,47 11,53c20,20 -17,69 -76,99c-31,16 -55,35 -55,44c0,34 -38,77 -73,84c-19,4 -41,13 -48,22c-7,8 -32,24 -56,35c-23,11 -43,23 -43,27c0,11 -51,32 -77,32c-25,0 -46,31 -41,62c2,12 23,35 48,52c27,18 55,49 68,74c22,43 15,56 -17,28c-16,-13 -81,-34 -138,-43c-26,-4 -32,-1 -38,17c-7,23 -4,27 50,55c27,14 30,47 5,70c-11,10 -20,23 -20,30c0,18 -34,45 -58,45c-11,0 -24,5 -27,10c-8,12 -13,12 -48,-7zm-691,-481c-9,-26 28,-59 48,-43c10,9 20,9 40,0c25,-12 30,-20 27,-45c-3,-23 26,-36 50,-24c16,9 27,9 44,0c17,-9 28,-9 43,-1c25,13 56,14 80,2c78,-39 153,-54 167,-32c3,6 27,13 53,16c26,3 55,10 64,16c26,13 72,11 104,-6c16,-8 37,-15 46,-15c9,0 20,-4 23,-10c3,-5 16,-10 28,-10c13,0 53,-28 99,-70c42,-39 80,-70 85,-70c5,0 16,-11 23,-25c10,-20 11,-28 2,-37c-16,-16 -15,-45 1,-51c6,-2 8,-8 4,-13c-4,-4 -17,-3 -27,4c-11,7 -27,12 -35,12c-9,0 -36,11 -61,25c-25,14 -51,25 -60,25c-8,0 -26,7 -39,16c-26,17 -87,13 -112,-8c-9,-7 -17,-7 -28,2c-8,6 -18,9 -23,6c-5,-3 -25,8 -45,25c-31,26 -42,29 -74,23c-21,-4 -45,-10 -54,-15c-10,-5 -30,-3 -48,4c-25,9 -36,9 -51,-1c-11,-7 -61,-16 -111,-22c-50,-5 -97,-14 -105,-21c-11,-9 -18,-8 -32,5c-10,9 -28,16 -39,16c-33,0 -125,-32 -162,-57c-19,-13 -44,-23 -57,-23c-35,0 -32,46 5,90c15,19 41,60 56,90c31,61 40,70 73,70c14,0 27,9 34,24c18,40 4,56 -46,56c-25,0 -48,6 -53,13c-19,30 11,76 50,77c13,0 17,-5 13,-18zm1699,-412c30,-28 32,-60 6,-84c-10,-9 -22,-37 -25,-60c-8,-54 -31,-76 -73,-71c-42,5 -57,-14 -48,-61c5,-27 2,-41 -11,-55c-21,-23 -64,-26 -64,-4c0,8 -6,15 -13,15c-8,0 -22,9 -32,20c-13,14 -21,17 -26,9c-15,-25 -39,0 -39,41c0,39 -10,67 -38,101c-11,14 -9,20 13,37c23,19 28,19 55,5c17,-8 30,-20 30,-27c0,-20 42,-54 47,-38c3,6 10,12 18,12c7,0 18,7 25,15c10,13 9,15 -9,15c-11,0 -21,6 -21,13c0,6 -15,29 -34,49c-31,34 -33,40 -23,63c7,13 15,25 18,25c3,0 18,-13 34,-30c16,-16 39,-30 51,-30c13,0 26,-4 29,-10c3,-5 10,-10 15,-10c12,0 41,56 34,63c-3,3 -3,10 0,16c10,16 55,6 81,-19z"/>
   <path id="svg_8" d="m1770,3391c0,-33 5,-63 10,-66c6,-3 10,-14 10,-24c0,-10 7,-24 15,-31c18,-15 20,-76 3,-87c-7,-4 -28,-13 -47,-18c-44,-13 -48,-27 -14,-42c39,-19 63,-16 87,10c30,33 68,47 90,35c21,-12 69,18 74,46c3,15 -3,17 -46,15c-31,-2 -57,2 -66,10c-18,15 -22,76 -6,86c28,17 -9,79 -68,113c-37,21 -42,15 -42,-47z"/>
   <path id="svg_9" d="m3285,2792c-11,-2 -29,-13 -41,-23c-22,-21 -29,-20 -101,13c-11,6 -26,7 -32,4c-14,-9 -14,-63 -1,-71c6,-3 19,-26 30,-51c11,-24 26,-44 34,-44c7,0 21,-9 31,-20c10,-11 27,-20 37,-20c10,0 30,-7 43,-16c18,-12 38,-15 77,-10c29,3 64,6 78,7c14,2 36,-1 49,-5c17,-6 28,-4 35,6c16,21 51,38 79,38c25,0 67,37 67,61c0,18 94,19 112,1c7,-7 23,-12 36,-12c19,0 23,4 20,26c-4,36 -31,53 -58,36c-18,-11 -21,-9 -30,13c-10,26 -43,34 -56,14c-4,-6 -17,2 -33,21c-29,35 -66,39 -66,7c0,-21 -23,-37 -42,-30c-8,3 -20,18 -29,34l-15,29l-102,-2c-56,-1 -111,-4 -122,-6z"/>
   <path id="svg_10" d="m3301,2096c-6,-7 -12,-30 -13,-50c-1,-20 -5,-39 -10,-42c-16,-10 3,-24 34,-24c59,0 80,-76 33,-120c-22,-21 -25,-32 -25,-92c0,-67 -1,-69 -22,-62c-51,15 -65,58 -28,82c24,15 25,29 4,70c-10,21 -23,32 -37,32c-39,0 -72,24 -72,50c0,32 -27,33 -40,2c-8,-19 -15,-22 -40,-18c-32,6 -101,-27 -91,-43c3,-5 -1,-14 -10,-22c-12,-10 -18,-9 -31,4c-13,13 -14,19 -4,31c15,18 10,108 -6,114c-8,2 -13,-5 -13,-15c0,-36 -25,-72 -62,-89c-36,-16 -54,-44 -60,-94c-3,-21 -9,-25 -41,-28c-26,-2 -45,2 -58,14c-18,16 -20,16 -40,-2c-17,-16 -22,-16 -29,-4c-6,8 -10,20 -10,26c0,6 -11,17 -25,24c-22,12 -28,11 -49,-9c-35,-33 -38,-56 -10,-82c18,-17 27,-20 35,-12c13,13 37,3 77,-32c19,-16 36,-20 82,-18c43,1 60,-2 64,-13c3,-8 12,-14 19,-14c8,0 28,-7 46,-16c30,-15 34,-15 50,0c20,18 47,21 56,6c3,-5 16,-10 28,-10c12,0 42,-16 66,-35c43,-35 84,-45 96,-25c4,7 23,1 52,-15c25,-14 54,-25 65,-25c11,0 28,-4 38,-10c13,-7 27,-5 49,6c30,15 34,14 68,-6l36,-21l23,22c22,21 25,21 42,6c24,-22 34,-21 77,3c20,11 44,20 55,20c17,0 20,7 20,53c0,87 6,97 54,97c33,0 43,5 52,23c9,21 7,25 -20,37c-48,20 -58,30 -45,46c12,15 4,34 -15,34c-6,0 -18,6 -25,13c-6,6 -24,12 -39,12c-26,0 -27,3 -30,53l-3,53l-42,-3c-40,-3 -42,-4 -45,-40c-3,-30 2,-40 23,-55c71,-50 71,-50 53,-69c-15,-15 -18,-15 -42,2c-14,11 -26,22 -26,26c0,4 -11,19 -25,34c-14,15 -25,33 -25,40c0,8 -6,14 -14,14c-7,0 -16,9 -19,19c-2,11 -28,31 -56,45c-44,23 -51,30 -51,55c0,57 -23,79 -49,47z"/>
   <path id="svg_11" d="m4729,1893c-7,-18 -7,-34 -1,-43c24,-39 -4,-90 -49,-90c-16,0 -29,-4 -29,-10c0,-5 4,-10 8,-10c12,0 14,-88 2,-95c-5,-3 -10,-15 -10,-26c0,-26 -23,-49 -49,-49c-18,0 -21,-6 -21,-40c0,-46 10,-50 36,-15c23,30 30,31 37,4c7,-27 27,-15 27,17c0,30 18,62 48,87c20,16 22,28 22,101c0,69 3,86 19,100c13,12 18,29 17,54c-1,30 -5,38 -23,40c-17,3 -26,-4 -34,-25z"/>
   <path id="svg_12" d="m1673,1666c-13,-6 -23,-14 -23,-18c0,-5 -6,-8 -14,-8c-7,0 -19,-7 -26,-15c-7,-8 -20,-15 -29,-15c-22,0 -71,-23 -71,-32c0,-5 -10,-8 -23,-8c-13,0 -27,-3 -31,-7c-4,-4 -13,-8 -19,-8c-22,-1 -102,-43 -121,-64c-11,-12 -25,-21 -33,-21c-7,0 -13,-3 -13,-7c0,-14 -61,-43 -91,-43c-16,0 -29,-4 -29,-10c0,-5 -15,-10 -32,-10c-18,0 -42,-7 -52,-15c-11,-8 -30,-15 -41,-15c-12,0 -30,-9 -40,-20c-10,-12 -25,-18 -32,-16c-7,3 -15,1 -18,-4c-4,-6 -15,-10 -26,-10c-10,0 -28,-4 -39,-10c-11,-5 -29,-14 -40,-20c-11,-5 -28,-10 -38,-10c-10,0 -27,-7 -38,-15c-10,-8 -34,-15 -51,-15c-18,0 -33,-3 -33,-8c0,-11 -49,-29 -100,-37c-24,-4 -51,-11 -60,-15c-40,-20 -69,-29 -107,-35c-24,-4 -43,-11 -43,-16c0,-5 -11,-9 -24,-9c-14,0 -28,-4 -31,-10c-3,-5 -18,-10 -33,-10c-15,0 -40,-7 -56,-15c-15,-8 -37,-15 -47,-15c-10,0 -33,-8 -51,-18c-18,-10 -38,-17 -45,-15c-6,2 -14,-1 -18,-6c-3,-6 -17,-11 -31,-11l-24,0l2,-462c3,-383 5,-462 17,-466c9,-3 11,0 6,7c-9,16 30,58 75,79c19,9 42,24 51,34c9,10 25,18 36,18c12,0 26,7 33,15c7,8 20,15 30,15c9,0 25,9 34,19c10,11 31,23 47,26c16,4 29,10 29,13c0,4 17,15 38,25c48,22 73,38 92,59c9,9 28,20 43,23c14,4 32,14 39,22c7,8 21,19 33,24c29,13 58,32 70,47c10,13 41,32 80,51c11,5 33,23 49,40c17,17 36,31 43,31c7,0 13,4 13,10c0,5 11,12 25,16c15,4 25,13 25,24c0,10 10,21 23,25c12,4 24,8 27,9c3,2 17,8 33,14c15,7 30,18 33,26c3,8 18,18 34,21c16,3 34,13 40,20c16,19 70,46 81,40c4,-3 10,-1 14,5c3,5 17,10 30,10c13,0 27,5 30,10c3,6 19,10 35,10c16,0 32,5 35,10c3,6 13,10 22,10c19,0 140,57 148,70c3,6 18,10 33,10c21,0 44,-17 92,-65c35,-36 69,-65 75,-65c6,0 24,-13 40,-30c16,-16 34,-30 41,-30c7,0 21,-11 32,-25c11,-14 23,-25 27,-25c16,0 120,-55 128,-67c4,-7 17,-13 27,-13c11,0 35,-9 55,-20c20,-11 41,-20 47,-20c6,0 36,-12 67,-26c85,-40 93,-42 141,-50c24,-3 51,-10 60,-14c52,-26 118,-40 192,-41c10,0 20,-4 23,-10c4,-5 26,-9 50,-9c24,0 47,-5 50,-10c3,-6 42,-10 85,-10c44,0 82,-5 85,-10c4,-6 28,-11 53,-11c158,-2 308,-11 317,-20c13,-13 645,-12 645,1c0,6 31,10 73,10c41,0 77,3 81,7c4,4 22,9 39,10c85,7 143,16 151,24c6,5 22,9 36,9c14,0 31,5 37,11c5,5 36,13 67,16c31,3 59,10 62,14c3,5 16,9 29,9c13,0 27,4 30,10c3,5 17,10 30,10c12,0 58,18 101,40c43,22 84,40 91,40c7,0 13,3 13,8c0,8 73,42 90,42c6,0 10,5 10,10c0,6 6,10 13,10c8,0 22,9 31,19c10,11 31,23 46,26c15,3 38,17 50,31c13,13 28,24 33,24c5,0 27,20 49,45c22,25 46,45 52,45c14,0 56,41 56,55c0,4 25,32 55,62c48,46 61,53 95,53c22,0 40,-4 40,-10c0,-5 18,-13 40,-16c21,-4 47,-15 56,-25c9,-11 23,-19 29,-19c7,0 15,-7 19,-15c3,-8 11,-15 19,-15c7,0 28,-16 47,-35c19,-19 39,-35 45,-35c6,0 22,-11 35,-25c13,-14 28,-25 35,-25c6,0 17,-9 25,-20c8,-10 27,-22 43,-26c16,-3 32,-14 34,-24c4,-16 35,-34 54,-31c4,0 15,-9 24,-19c10,-11 24,-20 32,-20c7,0 13,-4 13,-9c0,-5 13,-12 29,-16c16,-3 37,-15 47,-26c9,-10 23,-19 31,-19c7,0 16,-7 19,-15c4,-8 15,-15 25,-15c10,0 19,-3 19,-8c0,-9 81,-46 97,-44c6,2 14,-2 18,-8c3,-5 17,-10 31,-10c13,0 24,-3 24,-8c0,-4 18,-15 40,-25c22,-9 40,-21 40,-27c0,-5 6,-10 13,-10c8,0 22,-9 32,-20c10,-11 24,-20 32,-20c7,0 13,-4 13,-10c0,-5 5,-10 10,-10c6,0 10,95 10,265l0,265l-35,0c-22,0 -38,6 -41,15c-4,8 -14,15 -24,15c-9,0 -32,8 -51,17c-19,10 -42,16 -51,15c-10,-2 -18,0 -18,5c0,10 -44,29 -87,38c-18,4 -33,11 -33,16c0,5 -9,9 -20,9c-11,0 -35,9 -54,19c-19,11 -36,17 -39,15c-2,-3 -21,4 -41,16c-20,11 -45,20 -55,20c-10,0 -21,7 -25,15c-3,8 -14,15 -24,15c-22,0 -72,22 -72,33c0,4 -9,7 -20,7c-25,0 -100,32 -100,42c0,5 -10,8 -23,8c-13,0 -27,3 -31,8c-4,4 -11,7 -14,8c-11,1 -44,14 -87,35c-22,10 -53,21 -70,25c-40,8 -85,27 -85,36c0,3 -13,9 -29,13c-15,3 -41,19 -56,35c-15,16 -41,32 -56,35c-16,4 -29,10 -29,13c0,10 -50,32 -71,32c-10,0 -30,10 -46,23c-35,29 -95,57 -121,57c-37,0 -35,-21 7,-64c40,-41 41,-43 40,-111c-1,-80 -19,-122 -63,-144c-16,-7 -30,-21 -33,-30c-2,-9 -23,-26 -45,-36c-66,-32 -78,-39 -78,-47c0,-5 -9,-8 -20,-8c-11,0 -20,-6 -20,-13c0,-8 -21,-24 -47,-37c-27,-13 -61,-33 -78,-45c-46,-31 -117,-65 -125,-60c-4,2 -15,-4 -25,-15c-10,-11 -28,-20 -41,-20c-13,0 -26,-4 -29,-10c-3,-5 -23,-10 -44,-10c-20,0 -46,-7 -57,-15c-11,-8 -42,-14 -75,-15c-31,0 -59,-3 -63,-7c-30,-30 -218,-44 -258,-19c-13,8 -26,7 -49,-1c-17,-7 -36,-10 -44,-7c-7,3 -16,1 -20,-5c-8,-14 -68,-14 -82,0c-8,8 -13,8 -17,0c-4,-6 -22,-11 -41,-11c-19,0 -37,-4 -40,-10c-9,-15 -85,-13 -85,3c0,17 -79,41 -94,28c-7,-6 -26,-11 -42,-12c-103,-3 -261,-2 -334,4c-47,4 -119,10 -160,13c-41,3 -79,10 -85,15c-5,5 -39,9 -76,9c-37,0 -70,4 -73,9c-3,5 -49,12 -101,16c-52,4 -97,11 -101,16c-3,5 -16,9 -29,9c-13,0 -26,4 -29,9c-6,10 -64,25 -84,22c-7,-1 -29,7 -48,18c-19,12 -42,21 -51,21c-9,0 -30,10 -47,23c-17,13 -56,35 -86,50c-72,36 -89,47 -116,75c-11,12 -26,22 -31,22c-5,0 -24,16 -43,35c-19,19 -39,35 -45,35c-19,0 -174,164 -180,193c-4,15 -11,27 -16,27c-13,0 -11,31 4,64c8,19 33,37 85,62c60,29 72,38 72,58c0,21 -5,24 -27,23c-16,0 -38,-6 -50,-11z"/>
   <path id="svg_13" d="m6373,298c-11,-13 -30,-42 -42,-65c-11,-23 -25,-44 -31,-48c-5,-3 -10,-19 -10,-34c0,-22 -11,-35 -54,-65c-63,-43 -96,-71 -96,-80c0,-3 59,-6 130,-6l130,0l0,160c0,88 -1,160 -3,160c-2,0 -13,-10 -24,-22z"/>
  </g>
  <text font-weight="bold" xml:space="preserve" text-anchor="start" font-family="Noto Sans JP" font-size="24" id="svg_14" y="707.5" x="480.09766" stroke-width="0" stroke="#000" fill="#000000">HNorza.com</text>
 </g>
</svg>