<?xml version="1.0" standalone="no"?>
<!DOCTYPE svg PUBLIC "-//W3C//DTD SVG 20010904//EN"
 "http://www.w3.org/TR/2001/REC-SVG-20010904/DTD/svg10.dtd">
<svg version="1.0" xmlns="http://www.w3.org/2000/svg"
 width="746.000000pt" height="844.000000pt" viewBox="0 0 746.000000 844.000000"
 preserveAspectRatio="xMidYMid meet">
<metadata>
Created by potrace 1.16, written by Peter Selinger 2001-2019
</metadata>
<g transform="translate(0.000000,844.000000) scale(0.100000,-0.100000)"
fill="#000000" stroke="none">
<path d="M7440 4730 c0 -2467 -3 -3710 -10 -3710 -5 0 -10 5 -10 10 0 6 -17
10 -38 10 -26 0 -42 6 -52 20 -8 12 -26 20 -42 20 -15 0 -28 5 -28 10 0 6 -9
10 -20 10 -11 0 -20 5 -20 10 0 6 -13 10 -30 10 -16 0 -30 5 -30 10 0 6 -9 10
-20 10 -11 0 -20 5 -20 10 0 6 -13 10 -30 10 -16 0 -30 5 -30 10 0 6 -9 10
-20 10 -11 0 -20 5 -20 10 0 6 -13 10 -30 10 -16 0 -30 5 -30 10 0 6 -9 10
-20 10 -11 0 -20 5 -20 10 0 6 -13 10 -30 10 -16 0 -30 5 -30 10 0 6 -9 10
-20 10 -11 0 -20 5 -20 10 0 6 -13 10 -28 10 -16 0 -34 8 -42 20 -8 12 -26 20
-42 20 -15 0 -28 5 -28 10 0 6 -9 10 -20 10 -11 0 -20 5 -20 10 0 6 -13 10
-30 10 -16 0 -30 5 -30 10 0 6 -9 10 -20 10 -11 0 -20 5 -20 10 0 6 -9 10 -20
10 -11 0 -20 5 -20 10 0 6 -13 10 -30 10 -16 0 -30 5 -30 10 0 6 -9 10 -20 10
-11 0 -20 5 -20 10 0 6 -13 10 -30 10 -16 0 -30 5 -30 10 0 6 -9 10 -20 10
-11 0 -20 5 -20 10 0 6 -13 10 -30 10 -16 0 -30 5 -30 10 0 6 -13 10 -30 10
-16 0 -30 5 -30 10 0 6 -9 10 -20 10 -11 0 -20 5 -20 10 0 6 -9 10 -20 10 -11
0 -20 5 -20 10 0 6 -7 10 -16 10 -9 0 -29 14 -44 30 -15 17 -35 30 -44 30 -9
0 -16 5 -16 10 0 6 -9 10 -20 10 -11 0 -20 5 -20 10 0 6 -9 10 -20 10 -11 0
-20 5 -20 10 0 6 -13 10 -30 10 -16 0 -30 5 -30 10 0 6 -8 10 -18 10 -10 0
-24 9 -32 20 -8 11 -22 20 -32 20 -10 0 -18 5 -18 10 0 6 -9 10 -20 10 -11 0
-20 5 -20 10 0 16 -50 12 -66 -5 -14 -13 -10 -20 35 -64 l51 -50 0 -85 c0 -51
-4 -86 -10 -86 -5 0 -10 -7 -10 -15 0 -18 -44 -65 -60 -65 -17 0 -40 -26 -40
-44 0 -9 -8 -16 -20 -16 -11 0 -20 -4 -20 -10 0 -5 -8 -10 -18 -10 -10 0 -24
-9 -32 -20 -8 -11 -22 -20 -32 -20 -10 0 -18 -4 -18 -10 0 -5 -9 -10 -20 -10
-13 0 -20 -7 -20 -20 0 -13 -7 -20 -20 -20 -11 0 -20 -4 -20 -10 0 -5 -9 -10
-20 -10 -11 0 -20 -4 -20 -10 0 -5 -9 -10 -20 -10 -11 0 -20 -4 -20 -10 0 -5
-8 -10 -18 -10 -10 0 -24 -9 -32 -20 -8 -11 -22 -20 -32 -20 -10 0 -18 -4 -18
-10 0 -5 -9 -10 -20 -10 -11 0 -20 -4 -20 -10 0 -5 -13 -10 -28 -10 -16 0 -34
-8 -42 -20 -8 -12 -26 -20 -42 -20 -15 0 -28 -4 -28 -10 0 -5 -22 -10 -50 -10
-27 0 -50 -4 -50 -10 0 -5 -9 -10 -20 -10 -11 0 -20 -4 -20 -10 0 -6 -30 -10
-70 -10 -40 0 -70 -4 -70 -10 0 -5 -13 -10 -30 -10 -16 0 -30 -4 -30 -10 0 -6
-47 -10 -120 -10 -73 0 -120 4 -120 10 0 6 -13 10 -30 10 -16 0 -30 -4 -30
-10 0 -5 -18 -10 -40 -10 -22 0 -40 -4 -40 -10 0 -5 -18 -10 -40 -10 -22 0
-40 5 -40 10 0 6 -9 10 -20 10 -11 0 -20 -4 -20 -10 0 -5 -18 -10 -40 -10 -22
0 -40 -4 -40 -10 0 -5 -22 -10 -50 -10 -43 0 -50 3 -50 20 0 16 -7 20 -30 20
-16 0 -30 5 -30 10 0 6 -9 10 -20 10 -11 0 -20 -4 -20 -10 0 -5 -22 -10 -50
-10 -27 0 -50 -4 -50 -10 0 -6 -47 -10 -120 -10 -73 0 -120 4 -120 10 0 6 -43
10 -110 10 -67 0 -110 4 -110 10 0 6 -33 10 -80 10 -47 0 -80 4 -80 10 0 6
-37 10 -90 10 -53 0 -90 4 -90 10 0 6 -27 10 -60 10 -33 0 -60 4 -60 10 0 6
-27 10 -60 10 -33 0 -60 4 -60 10 0 6 -13 10 -30 10 -16 0 -30 5 -30 10 0 6
-13 10 -30 10 -16 0 -30 5 -30 10 0 6 -18 10 -40 10 -22 0 -40 5 -40 10 0 6
-9 10 -20 10 -11 0 -20 5 -20 10 0 6 -13 10 -30 10 -16 0 -30 5 -30 10 0 6 -8
10 -18 10 -10 0 -24 9 -32 20 -8 11 -22 20 -32 20 -10 0 -18 5 -18 10 0 6 -9
10 -20 10 -11 0 -20 5 -20 10 0 6 -8 10 -18 10 -10 0 -24 9 -32 20 -8 11 -21
20 -28 20 -8 0 -27 14 -42 30 -15 17 -33 30 -40 30 -6 0 -29 18 -50 40 -21 22
-43 40 -49 40 -17 0 -201 188 -201 205 0 8 -4 15 -10 15 -5 0 -10 9 -10 20 0
11 -4 20 -10 20 -5 0 -10 14 -10 30 0 17 5 30 10 30 6 0 10 7 10 16 0 20 24
44 44 44 9 0 16 5 16 10 0 6 9 10 20 10 11 0 20 5 20 10 0 6 9 10 20 10 11 0
20 5 20 10 0 6 9 10 20 10 16 0 20 7 20 30 0 28 -2 30 -40 30 -22 0 -40 -4
-40 -10 0 -5 -9 -10 -20 -10 -11 0 -20 -4 -20 -10 0 -5 -8 -10 -18 -10 -10 0
-24 -9 -32 -20 -8 -12 -26 -20 -42 -20 -15 0 -28 -4 -28 -10 0 -5 -9 -10 -20
-10 -11 0 -20 -4 -20 -10 0 -5 -13 -10 -30 -10 -16 0 -30 -4 -30 -10 0 -5 -13
-10 -30 -10 -16 0 -30 -4 -30 -10 0 -5 -9 -10 -20 -10 -11 0 -20 -4 -20 -10 0
-5 -7 -10 -16 -10 -9 0 -29 -13 -44 -30 -15 -16 -34 -30 -42 -30 -7 0 -20 -9
-28 -20 -8 -11 -22 -20 -32 -20 -10 0 -18 -4 -18 -10 0 -5 -18 -10 -40 -10
-22 0 -40 -4 -40 -10 0 -5 -18 -10 -40 -10 -22 0 -40 -4 -40 -10 0 -5 -9 -10
-20 -10 -11 0 -20 -4 -20 -10 0 -5 -13 -10 -28 -10 -16 0 -34 -8 -42 -20 -8
-12 -26 -20 -42 -20 -15 0 -28 -4 -28 -10 0 -5 -13 -10 -30 -10 -16 0 -30 -4
-30 -10 0 -5 -13 -10 -30 -10 -16 0 -30 -4 -30 -10 0 -5 -13 -10 -30 -10 -16
0 -30 -4 -30 -10 0 -5 -9 -10 -20 -10 -11 0 -20 -4 -20 -10 0 -5 -18 -10 -40
-10 -22 0 -40 -4 -40 -10 0 -5 -9 -10 -20 -10 -11 0 -20 -4 -20 -10 0 -5 -18
-10 -40 -10 -22 0 -40 -4 -40 -10 0 -5 -13 -10 -30 -10 -16 0 -30 -4 -30 -10
0 -5 -13 -10 -30 -10 -16 0 -30 -4 -30 -10 0 -5 -18 -10 -40 -10 -22 0 -40 -4
-40 -10 0 -5 -9 -10 -20 -10 -11 0 -20 -4 -20 -10 0 -5 -13 -10 -30 -10 -16 0
-30 -4 -30 -10 0 -5 -18 -10 -40 -10 -22 0 -40 -4 -40 -10 0 -5 -9 -10 -20
-10 -11 0 -20 -4 -20 -10 0 -5 -18 -10 -40 -10 -22 0 -40 -4 -40 -10 0 -5 -9
-10 -20 -10 -11 0 -20 -4 -20 -10 0 -5 -13 -10 -30 -10 -16 0 -30 -4 -30 -10
0 -5 -9 -10 -20 -10 -20 0 -20 -7 -20 -520 0 -286 3 -520 6 -520 3 0 19 14 34
30 15 17 35 30 44 30 9 0 16 5 16 10 0 6 8 10 18 10 10 0 24 9 32 20 8 11 26
20 40 20 14 0 32 9 40 20 8 11 26 20 40 20 14 0 32 9 40 20 8 11 22 20 32 20
10 0 18 5 18 10 0 6 9 10 20 10 11 0 20 5 20 10 0 6 9 10 20 10 11 0 20 5 20
10 0 6 8 10 18 10 10 0 24 9 32 20 8 11 21 20 30 20 9 0 22 9 30 20 8 11 22
20 32 20 10 0 18 5 18 10 0 6 8 10 18 10 10 0 24 9 32 20 8 11 21 20 30 20 9
0 22 9 30 20 8 11 21 20 30 20 9 0 22 9 30 20 8 11 21 20 30 20 9 0 22 9 30
20 8 11 21 20 28 20 7 0 31 18 52 40 21 22 45 40 52 40 7 0 20 9 28 20 8 11
22 20 32 20 11 0 18 7 18 20 0 13 7 20 20 20 11 0 20 5 20 10 0 6 9 10 20 10
11 0 20 5 20 10 0 6 8 10 18 10 10 0 24 9 32 20 8 11 22 20 32 20 10 0 18 5
18 10 0 6 8 10 18 10 10 0 24 9 32 20 8 11 22 20 32 20 10 0 18 5 18 10 0 6
14 10 30 10 17 0 30 5 30 10 0 6 14 10 30 10 17 0 30 5 30 10 0 6 18 10 40 10
22 0 40 5 40 10 0 6 14 10 30 10 17 0 30 5 30 10 0 6 9 10 20 10 11 0 20 5 20
10 0 6 9 10 20 10 11 0 20 5 20 10 0 6 8 10 18 10 10 0 24 9 32 20 9 13 26 20
48 20 28 0 45 -12 112 -80 44 -44 84 -80 91 -80 6 0 24 -13 39 -30 15 -16 33
-30 40 -30 7 0 25 -13 40 -30 15 -16 35 -30 44 -30 9 0 16 -4 16 -10 0 -5 9
-10 20 -10 11 0 20 -4 20 -10 0 -5 9 -10 20 -10 11 0 20 -4 20 -10 0 -5 8 -10
18 -10 10 0 24 -9 32 -20 8 -12 26 -20 42 -20 15 0 28 -4 28 -10 0 -5 9 -10
20 -10 11 0 20 -4 20 -10 0 -5 14 -10 30 -10 17 0 30 -4 30 -10 0 -5 9 -10 20
-10 11 0 20 -4 20 -10 0 -5 9 -10 20 -10 11 0 20 -4 20 -10 0 -5 14 -10 30
-10 17 0 30 -4 30 -10 0 -5 18 -10 40 -10 22 0 40 -4 40 -10 0 -5 14 -10 30
-10 17 0 30 -4 30 -10 0 -5 14 -10 30 -10 17 0 30 -4 30 -10 0 -6 27 -10 60
-10 33 0 60 -4 60 -10 0 -5 18 -10 40 -10 22 0 40 -4 40 -10 0 -6 27 -10 60
-10 33 0 60 -4 60 -10 0 -6 37 -10 90 -10 53 0 90 -4 90 -10 0 -6 30 -10 70
-10 40 0 70 -4 70 -10 0 -6 57 -10 150 -10 93 0 150 -4 150 -10 0 -6 130 -10
370 -10 240 0 370 4 370 10 0 6 37 10 90 10 53 0 90 4 90 10 0 6 23 10 50 10
28 0 50 5 50 10 0 6 27 10 60 10 33 0 60 4 60 10 0 6 18 10 40 10 22 0 40 5
40 10 0 6 14 10 30 10 17 0 30 5 30 10 0 6 23 10 50 10 28 0 50 5 50 10 0 6
14 10 30 10 17 0 30 5 30 10 0 6 18 10 40 10 22 0 40 5 40 10 0 6 9 10 20 10
11 0 20 5 20 10 0 6 9 10 20 10 11 0 20 5 20 10 0 6 9 10 20 10 11 0 20 5 20
10 0 6 9 10 20 10 11 0 20 5 20 10 0 6 9 10 20 10 11 0 20 5 20 10 0 6 9 10
20 10 11 0 20 5 20 10 0 6 9 10 20 10 11 0 20 5 20 10 0 6 9 10 20 10 11 0 20
5 20 10 0 6 8 10 18 10 10 0 24 9 32 20 8 11 22 20 32 20 10 0 18 5 18 10 0 6
7 10 16 10 9 0 29 14 44 30 15 17 33 30 40 30 6 0 33 23 60 50 27 28 54 50 60
50 14 0 60 46 60 60 0 6 29 40 65 75 60 61 68 65 110 65 25 0 45 -4 45 -10 0
-5 9 -10 20 -10 11 0 20 -4 20 -10 0 -5 13 -10 28 -10 16 0 34 -8 42 -20 8
-11 21 -20 30 -20 9 0 22 -9 30 -20 8 -11 21 -20 28 -20 7 0 31 -18 52 -40 21
-22 44 -40 50 -40 7 0 25 -13 40 -30 15 -16 34 -30 42 -30 7 0 20 -9 28 -20 8
-11 22 -20 32 -20 10 0 18 -4 18 -10 0 -5 9 -10 20 -10 13 0 20 -7 20 -20 0
-13 7 -20 20 -20 11 0 20 -4 20 -10 0 -5 8 -10 18 -10 10 0 24 -9 32 -20 8
-11 22 -20 32 -20 10 0 18 -4 18 -10 0 -5 9 -10 20 -10 11 0 20 -4 20 -10 0
-5 8 -10 18 -10 10 0 24 -9 32 -20 8 -11 21 -20 30 -20 9 0 22 -9 30 -20 8
-11 22 -20 32 -20 10 0 18 -4 18 -10 0 -5 9 -10 20 -10 11 0 20 -4 20 -10 0
-5 9 -10 20 -10 11 0 20 -4 20 -10 0 -5 14 -10 30 -10 17 0 30 -4 30 -10 0 -5
14 -10 30 -10 17 0 30 -4 30 -10 0 -5 9 -10 20 -10 11 0 20 -4 20 -10 0 -5 8
-10 18 -10 10 0 24 -9 32 -20 8 -11 21 -20 30 -20 9 0 22 -9 30 -20 8 -11 20
-20 28 -20 7 0 24 -11 37 -25 25 -24 25 -25 25 -230 0 -130 4 -205 10 -205 7
0 10 1413 10 4220 0 2807 -3 4220 -10 4220 -7 0 -10 -1243 -10 -3710z"/>
<path d="M5060 7900 c0 -11 -4 -20 -10 -20 -18 0 -11 -55 10 -70 14 -10 20
-26 20 -50 0 -24 -6 -40 -20 -50 -24 -18 -25 -36 -3 -58 12 -12 18 -13 21 -4
2 7 22 12 49 12 25 0 51 6 59 14 16 16 19 86 4 86 -5 0 -10 11 -10 25 0 17
-17 43 -55 80 -30 30 -57 55 -60 55 -3 0 -5 -9 -5 -20z"/>
<path d="M2400 7730 c-14 -16 -33 -30 -42 -30 -10 0 -18 -8 -18 -18 0 -10 -9
-24 -20 -32 -14 -10 -20 -26 -20 -52 0 -31 4 -38 20 -38 13 0 20 7 20 20 0 13
7 20 20 20 11 0 20 5 20 10 0 6 9 10 20 10 11 0 20 -4 20 -10 0 -5 9 -10 20
-10 18 0 20 7 20 59 0 38 4 61 12 63 9 3 8 9 -4 21 -23 24 -39 21 -68 -13z"/>
<path d="M5380 7631 c0 -46 -4 -71 -12 -75 -10 -5 -10 -7 0 -12 6 -3 12 -14
12 -25 0 -12 7 -19 20 -19 11 0 20 -4 20 -10 0 -5 18 -10 40 -10 22 0 40 5 40
10 0 6 7 10 16 10 18 0 44 24 44 40 0 7 -13 25 -30 40 -16 15 -30 35 -30 44 0
9 -8 16 -18 16 -10 0 -24 9 -32 20 -8 11 -22 20 -32 20 -10 0 -18 5 -18 10 0
6 -4 10 -10 10 -6 0 -10 -30 -10 -69z"/>
<path d="M2120 7490 c-14 -16 -31 -30 -38 -30 -17 0 -42 -25 -42 -40 0 -7 -13
-25 -30 -40 -23 -21 -30 -37 -30 -64 0 -20 5 -36 10 -36 6 0 10 -9 10 -20 0
-13 7 -20 20 -20 11 0 20 -4 20 -10 0 -5 12 -10 26 -10 14 0 32 -6 40 -14 16
-16 19 -86 4 -86 -5 0 -10 -7 -10 -16 0 -9 -13 -29 -30 -44 -29 -27 -40 -60
-20 -60 6 0 10 -8 10 -18 0 -10 9 -24 20 -32 11 -8 20 -22 20 -32 0 -10 5 -18
10 -18 6 0 10 23 10 50 0 28 5 50 10 50 6 0 10 9 10 20 0 11 5 20 10 20 6 0
10 40 10 100 0 60 -4 100 -10 100 -6 0 -10 30 -10 70 l0 70 30 0 c27 0 30 3
30 30 0 17 -4 30 -10 30 -5 0 -10 12 -10 26 0 21 -20 55 -32 54 -2 0 -14 -14
-28 -30z"/>
<path d="M3993 7505 c-24 -27 -14 -56 37 -105 28 -27 50 -56 50 -64 0 -9 5
-16 10 -16 6 0 10 -4 10 -10 0 -5 -9 -10 -20 -10 -11 0 -20 -4 -20 -10 0 -5
-13 -10 -30 -10 -16 0 -30 5 -30 10 0 18 -55 11 -70 -10 -8 -11 -22 -20 -32
-20 -10 0 -18 -4 -18 -10 0 -5 -18 -10 -40 -10 -22 0 -40 5 -40 10 0 6 -7 10
-16 10 -8 0 -22 6 -30 14 -16 17 -19 46 -4 46 6 0 10 23 10 50 0 28 -4 50 -10
50 -5 0 -10 18 -10 40 0 22 -3 40 -6 40 -11 0 -34 -29 -34 -44 0 -9 -4 -16
-10 -16 -5 0 -10 -13 -10 -30 0 -16 -4 -30 -10 -30 -5 0 -10 -18 -10 -40 0
-30 4 -40 16 -40 20 0 44 -24 44 -44 0 -11 -9 -16 -29 -16 -16 0 -32 -6 -35
-12 -5 -10 -7 -10 -12 0 -3 7 -24 12 -51 12 -37 0 -50 -5 -73 -30 -15 -16 -35
-30 -44 -30 -9 0 -16 -4 -16 -10 0 -5 -13 -10 -30 -10 -16 0 -30 5 -30 10 0 6
-9 10 -20 10 -11 0 -20 5 -20 10 0 6 -18 10 -40 10 -22 0 -40 -4 -40 -10 0 -5
-9 -10 -20 -10 -18 0 -20 7 -20 70 0 40 -4 70 -10 70 -5 0 -10 9 -10 20 0 11
-4 20 -10 20 -5 0 -10 -17 -10 -38 0 -26 -6 -42 -20 -52 -21 -15 -28 -50 -10
-50 6 0 10 -22 10 -50 0 -27 -4 -50 -10 -50 -5 0 -10 -9 -10 -20 0 -11 -4 -20
-10 -20 -5 0 -10 -7 -10 -16 0 -23 -25 -44 -54 -44 -14 0 -26 -4 -26 -10 0 -5
9 -10 20 -10 13 0 20 -7 20 -18 0 -10 9 -24 20 -32 11 -8 20 -20 20 -28 0 -18
-25 -42 -43 -42 -9 0 -17 -5 -19 -12 -6 -16 -58 35 -58 57 0 8 -4 15 -10 15
-5 0 -10 7 -10 16 0 18 -24 44 -41 44 -6 0 -21 -10 -32 -22 -13 -16 -21 -19
-24 -10 -3 6 -18 12 -34 12 -16 0 -29 5 -29 10 0 6 -4 10 -10 10 -5 0 -10 -9
-10 -20 0 -12 7 -20 16 -20 18 0 44 -24 44 -40 0 -7 -13 -25 -30 -40 -18 -17
-30 -38 -30 -54 0 -19 -5 -26 -20 -26 -11 0 -20 -4 -20 -10 0 -5 -13 -10 -30
-10 -16 0 -30 -4 -30 -10 0 -6 -27 -10 -60 -10 -53 0 -60 2 -60 20 0 13 -7 20
-20 20 -12 0 -20 -7 -20 -16 0 -23 -25 -44 -54 -44 -14 0 -26 -4 -26 -10 0 -5
5 -10 10 -10 6 0 10 -17 10 -38 0 -26 -6 -42 -20 -52 -11 -8 -20 -22 -20 -32
0 -10 -4 -18 -10 -18 -5 0 -10 -7 -10 -16 0 -20 -24 -44 -44 -44 -9 0 -16 -4
-16 -10 0 -5 -9 -10 -20 -10 -11 0 -20 -4 -20 -10 0 -5 -7 -10 -16 -10 -9 0
-29 -13 -44 -30 -27 -29 -60 -40 -60 -20 0 6 -13 10 -30 10 -23 0 -30 -5 -30
-19 0 -11 -6 -22 -12 -25 -10 -5 -10 -7 0 -12 14 -7 17 -64 2 -64 -5 0 -10 -9
-10 -20 0 -11 -4 -20 -10 -20 -5 0 -10 -7 -10 -15 0 -20 -45 -65 -65 -65 -8 0
-15 -4 -15 -10 0 -5 -25 -10 -56 -10 -69 0 -84 -14 -84 -74 0 -25 -4 -46 -10
-46 -5 0 -10 -9 -10 -20 0 -11 -4 -20 -10 -20 -5 0 -10 -9 -10 -20 0 -11 -4
-20 -10 -20 -5 0 -10 -9 -10 -20 0 -13 -7 -20 -20 -20 -13 0 -20 -7 -20 -20 0
-13 -7 -20 -20 -20 -11 0 -20 -4 -20 -10 0 -5 -7 -10 -16 -10 -30 0 -44 -27
-44 -84 0 -31 -4 -56 -10 -56 -5 0 -10 -9 -10 -20 0 -11 -4 -20 -10 -20 -6 0
-10 -27 -10 -60 0 -33 -4 -60 -10 -60 -5 0 -10 -13 -10 -30 0 -16 -4 -30 -10
-30 -5 0 -10 -9 -10 -20 0 -11 -4 -20 -10 -20 -5 0 -10 -9 -10 -20 0 -11 -4
-20 -10 -20 -5 0 -10 -13 -10 -30 0 -16 -4 -30 -10 -30 -6 0 -10 -32 -10 -76
0 -78 -11 -104 -44 -104 -9 0 -16 -4 -16 -10 0 -5 -13 -10 -30 -10 -23 0 -30
-4 -30 -20 0 -11 5 -20 10 -20 6 0 10 -9 10 -20 0 -11 -4 -20 -10 -20 -5 0
-10 -13 -10 -30 0 -16 5 -30 10 -30 6 0 10 -18 10 -40 0 -22 -4 -40 -10 -40
-5 0 -10 -13 -10 -30 0 -16 -4 -30 -10 -30 -6 0 -10 -53 -10 -140 0 -87 -4
-140 -10 -140 -5 0 -10 -13 -10 -29 0 -16 -6 -32 -12 -35 -10 -5 -10 -7 0 -12
14 -7 17 -104 2 -104 -5 0 -10 -18 -10 -39 0 -22 -6 -42 -12 -45 -10 -5 -10
-7 0 -12 15 -7 17 -124 2 -124 -5 0 -10 -18 -10 -40 0 -22 5 -40 10 -40 6 0
10 -33 10 -80 0 -47 4 -80 10 -80 6 0 10 -9 10 -20 0 -11 5 -20 10 -20 6 0 10
-18 10 -40 0 -22 5 -40 10 -40 6 0 10 -13 10 -30 0 -16 5 -30 10 -30 6 0 10
-7 10 -16 0 -9 13 -29 30 -44 16 -15 30 -35 30 -44 0 -9 5 -16 10 -16 6 0 10
-8 10 -18 0 -10 9 -24 20 -32 11 -8 20 -22 20 -32 0 -10 5 -18 10 -18 6 0 10
-7 10 -15 0 -20 45 -65 65 -65 8 0 15 -4 15 -10 0 -5 13 -10 28 -10 16 0 34
-8 42 -20 23 -31 30 -24 30 30 0 28 -4 50 -10 50 -5 0 -10 14 -10 30 0 17 -4
30 -10 30 -5 0 -10 9 -10 20 0 11 -4 20 -10 20 -5 0 -10 18 -10 40 0 22 5 40
10 40 6 0 10 47 10 120 0 73 4 120 10 120 6 0 10 33 10 80 0 47 4 80 10 80 6
0 10 9 10 20 0 11 5 20 10 20 6 0 10 14 10 30 0 17 5 30 10 30 6 0 10 9 10 20
0 11 5 20 10 20 6 0 10 27 10 60 0 33 4 60 10 60 6 0 10 9 10 20 0 15 7 20 26
20 33 0 54 21 54 54 0 14 5 26 10 26 6 0 10 14 10 30 0 17 5 30 10 30 6 0 10
9 10 20 0 11 5 20 10 20 6 0 10 9 10 20 0 11 5 20 10 20 6 0 10 18 10 40 0 22
5 40 10 40 6 0 10 14 10 30 0 17 5 30 10 30 6 0 10 14 10 30 0 17 5 30 10 30
6 0 10 27 10 60 0 33 4 60 10 60 6 0 10 18 10 40 0 33 3 40 20 40 19 0 20 7
20 90 0 53 4 90 10 90 6 0 10 -13 10 -28 0 -16 8 -34 20 -42 12 -8 20 -26 20
-42 0 -15 5 -28 10 -28 6 0 10 -7 10 -15 0 -19 164 -185 183 -185 7 0 19 -9
27 -20 8 -11 22 -20 32 -20 10 0 18 -4 18 -10 0 -5 9 -10 20 -10 11 0 20 -4
20 -10 0 -5 9 -10 20 -10 11 0 20 -4 20 -10 0 -5 9 -10 20 -10 11 0 20 -4 20
-10 0 -5 18 -10 40 -10 22 0 40 -4 40 -10 0 -5 23 -10 50 -10 28 0 50 -4 50
-10 0 -6 27 -10 60 -10 33 0 60 -4 60 -10 0 -5 9 -10 20 -10 11 0 20 -4 20
-10 0 -5 18 -10 40 -10 22 0 40 -4 40 -10 0 -5 14 -10 30 -10 17 0 30 5 30 10
0 6 23 10 50 10 28 0 50 5 50 10 0 6 18 10 40 10 22 0 40 5 40 10 0 6 14 10
30 10 17 0 30 5 30 10 0 6 16 10 36 10 30 0 44 9 94 60 32 33 66 60 74 60 11
0 16 10 16 30 0 17 5 30 10 30 6 0 10 13 10 28 0 16 8 34 20 42 11 8 20 21 20
30 0 9 9 22 20 30 11 8 20 21 20 30 0 9 9 22 20 30 11 8 20 22 20 32 0 10 5
18 10 18 6 0 10 8 10 18 0 10 9 24 20 32 12 8 20 26 20 42 0 15 5 28 10 28 6
0 10 9 10 20 0 11 5 20 10 20 6 0 10 9 10 20 0 11 5 20 10 20 6 0 10 14 10 30
0 17 5 30 10 30 6 0 10 9 10 20 0 11 5 20 10 20 6 0 10 27 10 60 0 33 4 60 10
60 6 0 10 7 10 15 0 9 16 31 35 50 30 31 41 35 85 35 47 0 54 -4 95 -45 30
-29 45 -53 45 -70 0 -14 5 -25 10 -25 6 0 10 -30 10 -70 0 -40 4 -70 10 -70 6
0 10 -13 10 -30 0 -16 5 -30 10 -30 6 0 10 -18 10 -40 0 -22 5 -40 10 -40 6 0
10 -13 10 -28 0 -16 8 -34 20 -42 11 -8 20 -22 20 -32 0 -10 5 -18 10 -18 6 0
10 -9 10 -20 0 -11 5 -20 10 -20 6 0 10 -8 10 -18 0 -10 9 -24 20 -32 11 -8
20 -22 20 -32 0 -10 5 -18 10 -18 6 0 10 -9 10 -20 0 -11 5 -20 10 -20 6 0 10
-8 10 -18 0 -10 9 -24 20 -32 11 -8 20 -21 20 -28 0 -7 18 -31 40 -52 22 -21
40 -46 40 -54 0 -9 8 -16 20 -16 13 0 20 -7 20 -18 0 -10 9 -24 20 -32 11 -8
20 -22 20 -32 0 -16 10 -18 80 -18 47 0 80 -4 80 -10 0 -5 23 -10 50 -10 28 0
50 -4 50 -10 0 -6 47 -10 120 -10 73 0 120 4 120 10 0 6 27 10 60 10 33 0 60
4 60 10 0 6 23 10 50 10 28 0 50 5 50 10 0 6 9 10 20 10 11 0 20 5 20 10 0 6
18 10 40 10 22 0 40 5 40 10 0 6 8 10 18 10 10 0 24 9 32 20 8 11 22 20 32 20
10 0 18 5 18 10 0 6 7 10 15 10 20 0 165 145 165 165 0 8 5 15 10 15 6 0 10 8
10 18 0 10 9 24 20 32 11 8 20 22 20 32 0 10 5 18 10 18 6 0 10 9 10 20 0 13
7 20 20 20 13 0 20 -7 20 -20 0 -11 5 -20 10 -20 6 0 10 -18 10 -40 0 -22 -4
-40 -10 -40 -5 0 -10 -22 -10 -50 0 -27 5 -50 10 -50 6 0 10 -9 10 -20 0 -11
-4 -20 -10 -20 -6 0 -10 -40 -10 -100 0 -60 4 -100 10 -100 6 0 10 -27 10 -60
0 -33 4 -60 10 -60 6 0 10 -13 10 -30 0 -16 -4 -30 -10 -30 -6 0 -10 -37 -10
-90 0 -53 -4 -90 -10 -90 -5 0 -10 -9 -10 -20 0 -11 5 -20 10 -20 15 0 12 -57
-2 -64 -10 -5 -10 -7 0 -12 6 -3 12 -23 12 -45 l0 -39 60 0 60 0 0 60 c0 33 4
60 10 60 6 0 10 9 10 20 0 11 5 20 10 20 6 0 10 -33 10 -80 0 -47 -4 -80 -10
-80 -5 0 -10 -22 -10 -50 0 -27 5 -50 10 -50 6 0 10 -9 10 -20 0 -11 5 -20 10
-20 6 0 10 -18 10 -40 0 -22 -4 -40 -10 -40 -15 0 -13 -117 3 -124 10 -5 10
-7 0 -12 -7 -3 -13 -21 -13 -40 0 -40 37 -84 70 -84 24 0 90 62 90 85 0 8 7
15 15 15 9 0 49 34 90 75 74 73 75 76 75 126 0 44 4 55 30 79 26 25 30 35 30
84 0 31 5 56 10 56 6 0 10 23 10 50 0 28 5 50 10 50 16 0 14 977 -2 984 -10 5
-10 7 0 12 15 7 17 184 2 184 -5 0 -10 18 -10 40 0 22 5 40 10 40 6 0 10 14
10 30 0 17 -4 30 -10 30 -6 0 -10 47 -10 120 0 73 -4 120 -10 120 -6 0 -10 27
-10 60 0 33 -4 60 -10 60 -5 0 -10 18 -10 40 0 22 5 40 10 40 6 0 10 18 10 40
0 22 -4 40 -10 40 -6 0 -10 40 -10 100 0 60 -4 100 -10 100 -5 0 -10 18 -10
40 0 22 -4 40 -10 40 -5 0 -10 17 -10 38 0 26 -6 42 -20 52 -17 12 -20 26 -20
92 0 45 -4 78 -10 78 -5 0 -10 7 -10 16 0 8 -18 33 -40 54 -35 34 -40 44 -40
84 0 25 -4 46 -10 46 -5 0 -10 8 -10 18 0 10 -9 24 -20 32 -11 8 -20 22 -20
32 0 10 -7 18 -15 18 -20 0 -105 85 -105 105 0 8 -4 15 -10 15 -5 0 -10 8 -10
18 0 10 -9 24 -20 32 -11 8 -20 20 -20 28 0 18 -25 42 -44 42 -13 0 -16 -12
-16 -59 0 -38 -5 -61 -12 -65 -10 -5 -10 -7 0 -12 14 -7 16 -44 2 -44 -5 0
-10 9 -10 20 0 16 -7 20 -30 20 -23 0 -30 5 -30 19 0 11 -6 22 -12 25 -10 5
-10 7 0 12 15 7 17 204 2 204 -5 0 -10 9 -10 20 0 11 -4 20 -10 20 -5 0 -10
14 -10 30 0 17 -4 30 -10 30 -5 0 -10 9 -10 20 0 13 -7 20 -19 20 -11 0 -21 6
-23 12 -6 17 -38 -14 -38 -36 0 -9 -4 -16 -10 -16 -5 0 -10 -18 -10 -40 0 -22
5 -40 10 -40 6 0 10 -25 10 -55 0 -46 4 -60 25 -80 13 -14 31 -25 40 -25 8 0
15 -9 15 -19 0 -11 6 -21 12 -23 17 -6 -14 -38 -36 -38 -9 0 -16 -8 -16 -20 0
-12 7 -20 16 -20 8 0 33 -18 54 -40 21 -22 46 -40 54 -40 12 0 16 -10 16 -40
0 -22 5 -40 10 -40 18 0 12 -110 -7 -128 -12 -12 -18 -13 -21 -4 -2 7 -21 12
-43 12 -21 0 -39 5 -39 10 0 6 -9 10 -20 10 -11 0 -20 -4 -20 -10 0 -5 -18
-10 -40 -10 -50 0 -53 20 -10 60 32 30 40 60 14 60 -23 0 -44 25 -44 54 0 14
-4 26 -10 26 -5 0 -10 9 -10 20 0 13 -7 20 -20 20 -11 0 -20 5 -20 10 0 6 -9
10 -20 10 -11 0 -20 5 -20 10 0 6 -26 10 -59 10 -38 0 -61 4 -64 13 -3 8 -11
5 -24 -10 -11 -13 -23 -23 -27 -23 -12 0 -6 118 6 122 21 7 -38 58 -67 58 -14
0 -25 5 -25 10 0 6 -9 10 -20 10 -16 0 -20 7 -20 30 0 17 5 30 10 30 6 0 10 9
10 20 0 13 -7 20 -20 20 -12 0 -20 -7 -20 -16 0 -32 -27 -44 -100 -44 -73 0
-100 12 -100 44 0 9 -4 16 -10 16 -5 0 -10 9 -10 20 0 11 -7 20 -15 20 -20 0
-85 65 -85 85 0 8 -4 15 -10 15 -5 0 -10 -4 -10 -10 0 -5 -9 -10 -20 -10 -17
0 -20 -7 -20 -40 0 -33 3 -40 20 -40 13 0 20 -7 20 -20 0 -13 -7 -20 -20 -20
-12 0 -20 -7 -20 -16 0 -28 -27 -44 -73 -44 -27 0 -48 -5 -51 -12 -5 -10 -7
-10 -12 0 -3 6 -19 12 -35 12 -16 0 -29 5 -29 10 0 6 -12 10 -26 10 -26 0 -54
20 -54 40 0 41 103 57 130 20 10 -14 26 -20 52 -20 36 0 38 2 38 30 0 17 -4
30 -10 30 -5 0 -10 18 -10 40 0 22 -4 40 -10 40 -5 0 -10 -4 -10 -10 0 -5 -22
-10 -48 -10 -36 0 -51 5 -62 20 -8 12 -26 20 -42 20 -15 0 -28 5 -28 10 0 6
-13 10 -30 10 -16 0 -30 5 -30 10 0 18 -55 11 -70 -10 -16 -22 -45 -26 -54 -7
-5 10 -7 10 -12 0 -3 -7 -13 -13 -23 -13 -9 0 -23 -9 -31 -20 -8 -11 -25 -20
-38 -20 -24 0 -72 40 -72 60 0 16 -26 40 -42 40 -8 0 -20 -9 -28 -20 -8 -12
-26 -20 -42 -20 -24 0 -28 4 -28 30 0 33 -25 41 -47 15z m347 -655 c0 -6 27
-10 60 -10 33 0 60 -4 60 -10 0 -6 47 -10 120 -10 73 0 120 -4 120 -10 0 -5
18 -10 40 -10 22 0 40 -4 40 -10 0 -5 13 -10 28 -10 16 0 34 -8 42 -20 8 -11
22 -20 32 -20 10 0 18 -4 18 -10 0 -5 9 -10 20 -10 11 0 20 -4 20 -10 0 -5 8
-10 18 -10 10 0 24 -9 32 -20 8 -11 21 -20 30 -20 9 0 22 -9 30 -20 8 -11 20
-20 27 -20 16 0 163 -145 163 -161 0 -6 14 -24 30 -39 17 -15 30 -33 30 -39 0
-17 67 -81 85 -81 8 0 15 -9 15 -20 0 -11 5 -20 10 -20 6 0 10 -13 10 -28 0
-16 8 -34 20 -42 11 -8 20 -21 20 -30 0 -9 9 -22 20 -30 11 -8 20 -22 20 -32
0 -10 5 -18 10 -18 6 0 10 -13 10 -29 0 -16 6 -31 12 -33 9 -3 8 -9 -4 -21
-18 -19 -108 -24 -108 -7 0 6 -27 10 -60 10 -33 0 -60 4 -60 10 0 6 -33 10
-80 10 -47 0 -80 4 -80 10 0 6 -9 10 -20 10 -11 0 -20 -4 -20 -10 0 -6 -30
-10 -70 -10 -40 0 -70 4 -70 10 0 6 -22 10 -50 10 -27 0 -50 5 -50 10 0 6 -30
10 -69 10 -46 0 -71 4 -75 13 -5 10 -7 10 -12 0 -4 -8 -27 -13 -65 -13 -33 0
-59 -4 -59 -10 0 -6 -27 -10 -60 -10 -33 0 -60 -4 -60 -10 0 -5 -22 -10 -50
-10 -27 0 -50 -4 -50 -10 0 -6 -57 -10 -150 -10 -93 0 -150 -4 -150 -10 0 -6
-37 -10 -90 -10 -53 0 -90 4 -90 10 0 6 -37 10 -90 10 -53 0 -90 4 -90 10 0 6
-33 10 -80 10 -47 0 -80 4 -80 10 0 6 -33 10 -80 10 -47 0 -80 4 -80 10 0 6
-22 10 -50 10 -27 0 -50 5 -50 10 0 6 -135 10 -386 10 -321 0 -388 2 -400 14
-18 19 -18 26 2 26 8 0 37 23 64 50 27 28 54 50 60 50 6 0 38 27 70 60 32 33
65 60 72 60 8 0 20 9 28 20 8 11 21 20 28 20 7 0 31 18 52 40 21 22 45 40 52
40 7 0 20 9 28 20 8 12 26 20 42 20 15 0 28 5 28 10 0 6 9 10 20 10 11 0 20 5
20 10 0 6 7 10 16 10 9 0 29 14 44 30 15 17 35 30 44 30 9 0 16 5 16 10 0 6 8
10 18 10 10 0 24 9 32 20 10 14 26 20 52 20 21 0 38 5 38 10 0 6 9 10 20 10
11 0 20 5 20 10 0 6 9 10 20 10 11 0 20 5 20 10 0 6 9 10 20 10 11 0 20 5 20
10 0 6 14 10 30 10 17 0 30 5 30 10 0 6 27 10 60 10 33 0 60 4 60 10 0 6 18
10 40 10 22 0 40 5 40 10 0 6 23 10 50 10 28 0 50 5 50 10 0 6 36 10 89 10 62
0 91 4 94 13 4 9 8 8 17 -3 9 -11 13 -12 17 -2 3 8 32 12 94 12 53 0 89 4 89
10 0 6 30 10 70 10 40 0 70 -4 70 -10z m1540 -160 c0 -5 9 -10 20 -10 13 0 20
-7 20 -20 0 -11 5 -20 10 -20 6 0 10 -9 10 -20 0 -11 5 -20 10 -20 6 0 10 -9
10 -20 0 -11 5 -20 10 -20 6 0 10 -8 10 -18 0 -10 9 -24 20 -32 11 -8 20 -22
20 -31 0 -10 6 -20 13 -23 10 -5 10 -7 0 -12 -7 -3 -13 -14 -13 -25 0 -12 -7
-19 -19 -19 -11 0 -22 -6 -25 -12 -5 -10 -7 -10 -12 0 -3 6 -19 12 -35 12 -22
0 -29 5 -29 20 0 11 -4 20 -10 20 -5 0 -10 18 -10 40 0 22 -4 40 -10 40 -6 0
-10 37 -10 90 0 53 4 90 10 90 6 0 10 -4 10 -10z m-2340 -1558 c0 -36 -5 -51
-20 -62 -11 -8 -20 -20 -20 -27 0 -8 -25 -38 -55 -68 -30 -30 -60 -55 -68 -55
-7 0 -19 -9 -27 -20 -8 -11 -22 -20 -32 -20 -10 0 -18 -4 -18 -10 0 -5 -22
-10 -48 -10 -36 0 -51 -5 -62 -20 -8 -11 -22 -20 -32 -20 -10 0 -18 -4 -18
-10 0 -16 -109 -12 -126 5 -13 13 -12 18 10 40 14 14 32 25 41 25 8 0 15 5 15
10 0 6 27 10 60 10 33 0 60 4 60 10 0 6 8 10 18 10 10 0 24 9 32 20 8 11 21
20 28 20 8 0 27 14 42 30 15 17 33 30 39 30 17 0 121 107 121 125 0 8 9 15 20
15 11 0 20 5 20 10 0 6 5 10 10 10 6 0 10 -22 10 -48z m1020 -102 c0 -5 9 -10
20 -10 15 0 20 -7 20 -26 0 -39 22 -54 80 -54 45 0 56 -4 80 -30 15 -16 35
-30 44 -30 9 0 16 -4 16 -10 0 -5 9 -10 20 -10 11 0 20 -4 20 -10 0 -5 17 -10
38 -10 26 0 42 -6 52 -20 10 -14 26 -20 52 -20 21 0 38 -4 38 -10 0 -5 9 -10
20 -10 11 0 20 5 20 10 0 6 5 10 10 10 6 0 10 -9 10 -20 0 -19 -7 -20 -138
-20 -126 0 -139 2 -152 20 -8 12 -26 20 -42 20 -15 0 -28 5 -28 10 0 6 -13 10
-28 10 -16 0 -34 8 -42 20 -8 11 -20 20 -28 20 -16 0 -62 45 -62 60 0 6 -6 18
-14 26 -8 8 -20 14 -26 14 -16 0 -60 47 -60 65 0 11 11 15 40 15 22 0 40 -4
40 -10z m830 -10 c15 -21 70 -28 70 -10 0 15 29 12 46 -4 26 -26 17 -74 -21
-111 -19 -19 -40 -35 -47 -35 -8 0 -20 -9 -28 -20 -8 -12 -26 -20 -42 -20 -15
0 -28 -4 -28 -10 0 -5 -9 -10 -20 -10 -11 0 -20 -4 -20 -10 0 -6 -37 -10 -90
-10 -53 0 -90 4 -90 10 0 6 16 10 36 10 38 0 64 18 64 44 0 11 9 16 30 16 36
0 41 27 10 50 -21 15 -28 50 -10 50 6 0 10 7 10 16 0 20 24 44 44 44 9 0 16 5
16 10 0 18 55 11 70 -10z m-2930 -10 c0 -5 22 -10 48 -10 36 0 51 -5 62 -20 8
-11 21 -20 28 -20 8 0 27 -13 42 -30 15 -16 35 -30 44 -30 9 0 16 -4 16 -10 0
-5 14 -10 30 -10 34 0 37 -5 13 -28 -12 -12 -18 -13 -21 -4 -2 7 -21 12 -43
12 -21 0 -39 5 -39 10 0 6 -9 10 -20 10 -11 0 -20 5 -20 10 0 6 -9 10 -20 10
-11 0 -20 5 -20 10 0 6 -9 10 -20 10 -11 0 -20 5 -20 10 0 6 -9 10 -20 10 -11
0 -20 5 -20 10 0 6 -9 10 -20 10 -16 0 -20 7 -20 30 0 17 5 30 10 30 6 0 10
-4 10 -10z"/>
<path d="M1833 7205 c-18 -19 -33 -41 -33 -50 0 -8 -4 -15 -10 -15 -5 0 -10
-9 -10 -20 0 -11 -4 -20 -10 -20 -5 0 -10 -13 -10 -30 0 -16 -4 -30 -10 -30
-5 0 -10 -7 -10 -16 0 -18 -23 -44 -40 -44 -21 0 -80 -69 -80 -95 0 -14 -4
-25 -10 -25 -5 0 -10 -13 -10 -30 0 -16 -4 -30 -10 -30 -5 0 -10 -18 -10 -40
0 -22 -4 -40 -10 -40 -5 0 -10 -9 -10 -20 0 -12 -7 -20 -16 -20 -26 0 -44 -26
-44 -64 0 -20 -4 -36 -10 -36 -6 0 -10 -29 -10 -66 0 -67 -13 -94 -44 -94 -11
0 -16 -9 -16 -30 0 -16 -4 -30 -10 -30 -5 0 -10 -22 -10 -50 0 -27 5 -50 10
-50 6 0 10 -13 10 -30 0 -16 2 -30 5 -30 13 0 55 50 55 65 0 8 5 15 10 15 6 0
10 16 10 36 0 50 18 64 84 64 49 0 56 2 56 20 0 11 5 20 10 20 6 0 10 9 10 20
0 13 7 20 20 20 11 0 20 5 20 10 0 6 9 10 20 10 16 0 20 7 20 30 0 17 5 30 10
30 6 0 10 14 10 30 0 17 -4 30 -10 30 -19 0 -10 53 13 73 15 13 18 21 10 24
-7 3 -13 13 -13 24 0 10 -4 19 -10 19 -5 0 -10 14 -10 30 0 17 5 30 10 30 6 0
10 14 10 30 0 23 4 30 20 30 11 0 20 5 20 10 0 6 14 10 30 10 29 0 30 1 30 50
l0 50 36 0 c36 0 81 29 56 38 -15 5 -17 102 -2 102 6 0 10 11 10 25 0 27 -60
96 -82 94 -7 0 -28 -16 -45 -34z"/>
<path d="M4280 4610 c0 -5 -7 -10 -15 -10 -19 0 -65 -44 -65 -62 0 -8 -9 -20
-20 -28 -11 -8 -20 -20 -20 -28 0 -27 -48 -62 -85 -62 -19 0 -35 -4 -35 -10 0
-5 -13 -10 -30 -10 -16 0 -30 -4 -30 -10 0 -5 -18 -10 -40 -10 -22 0 -40 5
-40 10 0 6 -12 10 -26 10 -29 0 -54 21 -54 44 0 9 -4 16 -10 16 -5 0 -10 7
-10 15 0 19 -64 85 -82 85 -8 0 -20 9 -28 20 -15 21 -70 28 -70 10 0 -5 -7
-10 -15 -10 -20 0 -65 -45 -65 -65 0 -8 -4 -15 -10 -15 -15 0 -12 -70 4 -86
18 -17 82 -19 90 -1 5 10 7 10 12 0 3 -7 19 -13 35 -13 26 0 29 -4 29 -30 l0
-30 -68 0 c-56 0 -70 3 -82 20 -19 26 -110 30 -110 5 0 -23 66 -85 90 -85 12
0 28 -6 36 -14 18 -18 19 -102 2 -110 -10 -5 -10 -7 0 -12 35 -16 -1 -64 -48
-64 -53 0 -80 -51 -46 -86 17 -16 46 -19 46 -4 0 6 9 10 20 10 11 0 20 -4 20
-10 0 -5 9 -10 20 -10 17 0 20 -7 20 -40 0 -38 2 -40 30 -40 17 0 30 5 30 10
0 6 9 10 20 10 11 0 20 -4 20 -10 0 -5 14 -10 30 -10 17 0 30 5 30 10 0 6 18
10 40 10 22 0 40 -4 40 -10 0 -5 14 -10 30 -10 17 0 30 -4 30 -10 0 -5 9 -10
20 -10 11 0 20 -4 20 -10 0 -5 23 -10 50 -10 28 0 50 5 50 10 0 6 14 10 30 10
17 0 30 5 30 10 0 6 18 10 40 10 22 0 40 5 40 10 0 6 23 10 50 10 28 0 50 -4
50 -10 0 -5 9 -10 20 -10 11 0 20 -4 20 -10 0 -5 14 -10 30 -10 17 0 30 -4 30
-10 0 -5 12 -10 26 -10 16 0 37 -12 54 -30 15 -16 33 -30 40 -30 6 0 33 -22
60 -50 27 -27 56 -50 64 -50 9 0 16 -9 16 -20 0 -11 5 -20 10 -20 6 0 10 -9
10 -20 0 -11 -4 -20 -10 -20 -5 0 -10 -13 -10 -30 0 -16 5 -30 10 -30 6 0 10
-4 10 -10 0 -5 -9 -10 -20 -10 -11 0 -20 5 -20 10 0 6 -13 10 -30 10 -16 0
-30 5 -30 10 0 6 -9 10 -20 10 -11 0 -20 5 -20 10 0 6 -9 10 -20 10 -11 0 -20
5 -20 10 0 6 -13 10 -30 10 -16 0 -30 5 -30 10 0 6 -9 10 -20 10 -11 0 -20 5
-20 10 0 6 -13 10 -30 10 -16 0 -30 -4 -30 -10 0 -5 -13 -10 -29 -10 -16 0
-32 -6 -35 -12 -5 -10 -7 -10 -12 0 -3 6 -17 12 -31 12 -16 0 -39 15 -65 43
-25 25 -43 37 -45 30 -3 -8 -21 -13 -44 -13 -21 0 -39 -4 -39 -10 0 -5 -13
-10 -30 -10 -16 0 -30 5 -30 10 0 6 -13 10 -30 10 -16 0 -30 -4 -30 -10 0 -5
-13 -10 -30 -10 -16 0 -30 -4 -30 -10 0 -6 -30 -10 -70 -10 -40 0 -70 -4 -70
-10 0 -5 -13 -10 -29 -10 -16 0 -31 -6 -34 -12 -3 -9 -11 -6 -24 10 -21 23
-93 32 -93 12 0 -5 -13 -10 -30 -10 -16 0 -30 -4 -30 -10 0 -5 -13 -10 -28
-10 -16 0 -34 -8 -42 -20 -8 -11 -22 -20 -32 -20 -10 0 -18 -4 -18 -10 0 -5
-13 -10 -30 -10 -28 0 -30 2 -30 40 0 22 5 40 10 40 6 0 10 7 10 16 0 9 14 29
30 44 17 15 30 35 30 44 0 9 5 16 10 16 6 0 10 9 10 20 0 11 5 20 10 20 6 0
10 7 10 16 0 26 26 44 64 44 29 0 36 4 36 20 0 11 5 20 10 20 15 0 12 29 -4
46 -9 9 -35 14 -70 14 l-56 0 0 40 c0 33 3 40 20 40 11 0 20 5 20 10 0 6 7 10
16 10 39 0 58 57 29 87 -14 14 -18 13 -34 -6 -14 -15 -30 -21 -62 -21 -33 0
-48 -5 -59 -20 -10 -14 -26 -20 -52 -20 -31 0 -38 -4 -38 -20 0 -13 -7 -20
-20 -20 -11 0 -20 -4 -20 -10 0 -5 -9 -10 -20 -10 -11 0 -20 -4 -20 -10 0 -5
-11 -10 -25 -10 -35 0 -115 -80 -115 -115 0 -18 -5 -25 -20 -25 -11 0 -20 -4
-20 -10 0 -5 -7 -10 -16 -10 -18 0 -44 -24 -44 -40 0 -7 -13 -25 -30 -40 -27
-25 -30 -34 -30 -89 0 -52 -4 -66 -25 -86 -13 -14 -31 -25 -40 -25 -8 0 -15
-4 -15 -10 0 -5 -9 -10 -20 -10 -11 0 -20 -4 -20 -10 0 -5 -7 -10 -16 -10 -8
0 -22 -6 -30 -14 -16 -16 -19 -86 -4 -86 6 0 10 -9 10 -20 0 -13 -7 -20 -20
-20 -13 0 -20 -7 -20 -20 0 -11 -4 -20 -10 -20 -5 0 -10 -7 -10 -16 0 -20 -24
-44 -44 -44 -11 0 -16 -9 -16 -30 0 -16 -4 -30 -10 -30 -5 0 -10 -9 -10 -20 0
-17 7 -20 50 -20 43 0 50 -3 50 -20 0 -17 -7 -20 -50 -20 -39 0 -50 -4 -50
-16 0 -25 -26 -44 -60 -44 -33 0 -80 -38 -80 -65 0 -8 -4 -15 -10 -15 -5 0
-10 7 -10 15 0 25 -46 65 -75 65 -22 0 -25 -4 -25 -38 0 -26 6 -42 20 -52 21
-15 28 -50 10 -50 -5 0 -10 -8 -10 -18 0 -10 -9 -24 -20 -32 -24 -17 -27 -74
-6 -96 17 -16 46 -19 46 -4 0 16 50 11 68 -7 12 -12 13 -18 4 -21 -6 -2 -12
-10 -12 -19 0 -24 -26 -43 -60 -43 -28 0 -60 -18 -60 -34 0 -3 14 -6 30 -6 17
0 30 -4 30 -10 0 -5 9 -10 20 -10 22 0 27 -15 8 -23 -10 -4 -9 -8 2 -16 12 -8
11 -13 -8 -29 -17 -15 -22 -30 -22 -71 0 -54 15 -81 44 -81 9 0 16 -4 16 -10
0 -5 9 -10 20 -10 11 0 20 -4 20 -10 0 -15 29 -12 46 4 8 8 14 34 14 60 0 44
1 46 30 46 35 0 38 -10 10 -30 -14 -10 -20 -26 -20 -52 0 -21 -4 -38 -10 -38
-5 0 -10 -13 -10 -30 0 -16 -4 -30 -10 -30 -18 0 -11 -35 10 -50 11 -8 20 -25
20 -38 0 -13 6 -30 14 -38 17 -16 46 -19 46 -4 0 6 8 10 18 10 10 0 24 9 32
20 18 25 30 26 30 1 0 -11 6 -22 13 -24 9 -4 8 -8 -3 -17 -11 -9 -12 -13 -2
-17 19 -8 14 -23 -8 -23 -16 0 -20 -7 -20 -30 0 -16 3 -30 6 -30 10 0 34 28
34 40 0 14 46 60 60 60 16 0 40 -26 40 -43 0 -9 6 -18 13 -21 10 -5 10 -7 0
-12 -7 -3 -13 -19 -13 -35 0 -27 2 -29 40 -29 40 0 40 0 40 38 0 26 6 42 20
52 11 8 20 21 20 30 0 9 9 22 20 30 14 10 20 26 20 52 0 21 -4 38 -10 38 -5 0
-10 -4 -10 -10 0 -5 -18 -10 -40 -10 l-40 0 0 50 c0 28 5 50 10 50 6 0 10 9
10 20 0 12 7 20 16 20 20 0 44 24 44 44 0 9 8 16 20 16 16 0 20 -7 20 -30 0
-23 -4 -30 -20 -30 -11 0 -20 -4 -20 -10 0 -18 55 -11 70 10 8 11 22 20 32 20
10 0 18 5 18 10 0 6 9 10 20 10 11 0 20 7 20 15 0 19 44 65 61 65 6 0 21 10
32 23 13 15 21 18 24 10 5 -15 43 -17 43 -3 0 6 23 10 50 10 38 0 50 -4 50
-15 0 -26 -66 -85 -95 -85 -14 0 -25 -3 -25 -6 0 -13 30 -34 50 -34 12 0 39
-18 61 -41 35 -36 41 -39 54 -25 8 8 15 22 15 30 0 9 5 16 10 16 6 0 10 9 10
20 0 11 5 20 10 20 6 0 10 16 10 36 0 27 7 43 30 64 24 22 30 36 30 70 0 40
-17 70 -40 70 -16 0 -60 47 -60 65 0 8 -4 15 -10 15 -5 0 -10 23 -10 50 0 28
-4 50 -10 50 -5 0 -10 14 -10 30 0 17 5 30 10 30 15 0 12 29 -4 46 -8 8 -34
14 -58 14 -32 0 -47 5 -58 20 -8 11 -22 20 -32 20 -10 0 -18 5 -18 10 0 6 -9
10 -20 10 -11 0 -20 5 -20 10 0 6 -9 10 -20 10 -13 0 -20 7 -20 20 0 11 -4 20
-10 20 -5 0 -10 14 -10 30 0 17 -4 30 -10 30 -5 0 -10 18 -10 40 0 22 5 40 10
40 6 0 10 9 10 20 0 11 5 20 10 20 6 0 10 7 10 15 0 20 45 65 65 65 8 0 15 5
15 10 0 6 9 10 20 10 11 0 20 5 20 10 0 6 9 10 20 10 11 0 20 5 20 10 0 6 18
10 40 10 22 0 40 5 40 10 0 6 18 10 40 10 22 0 40 5 40 10 0 6 18 10 40 10 22
0 40 5 40 10 0 6 9 10 20 10 11 0 20 5 20 10 0 6 9 10 20 10 11 0 20 5 20 10
0 6 9 10 20 10 11 0 20 5 20 10 0 6 14 10 30 10 17 0 30 5 30 10 0 14 37 12
44 -2 5 -10 7 -10 12 0 7 14 64 17 64 2 0 -6 53 -10 140 -10 87 0 140 4 140
10 0 6 18 10 40 10 22 0 40 -4 40 -10 0 -5 14 -10 30 -10 17 0 30 -4 30 -10 0
-5 14 -10 30 -10 17 0 30 -4 30 -10 0 -5 16 -10 36 -10 35 0 64 -18 64 -40 0
-26 30 -40 84 -40 31 0 56 -4 56 -10 0 -5 18 -10 40 -10 22 0 40 -4 40 -10 0
-5 25 -10 55 -10 52 0 58 -3 100 -45 25 -24 45 -50 45 -58 0 -7 9 -19 20 -27
11 -8 20 -22 20 -32 0 -10 5 -18 10 -18 6 0 10 -18 10 -40 0 -22 5 -40 10 -40
6 0 10 -4 10 -10 0 -5 -9 -10 -20 -10 -11 0 -20 -4 -20 -10 0 -5 -8 -10 -18
-10 -10 0 -24 -9 -32 -20 -8 -11 -22 -20 -31 -20 -10 0 -20 -6 -23 -12 -5 -10
-7 -10 -12 0 -11 22 -55 13 -84 -18 -15 -16 -38 -30 -50 -30 -12 0 -29 -7 -37
-16 -14 -13 -14 -17 -2 -26 11 -7 11 -11 2 -15 -7 -2 -13 -13 -13 -24 0 -14
-7 -19 -30 -19 -23 0 -30 -4 -30 -20 0 -11 -4 -20 -10 -20 -6 0 -10 -26 -10
-58 0 -46 -4 -60 -20 -72 -11 -8 -20 -22 -20 -32 0 -11 -7 -18 -18 -18 -10 0
-24 -9 -32 -20 -8 -12 -26 -20 -42 -20 -29 0 -38 -14 -15 -24 10 -5 10 -7 0
-12 -7 -3 -13 -14 -13 -25 0 -12 -7 -19 -20 -19 -17 0 -20 -7 -20 -50 0 -39 4
-50 16 -50 22 0 44 -25 44 -50 0 -12 -13 -35 -30 -50 -18 -17 -30 -38 -30 -54
0 -22 4 -26 30 -26 22 0 30 5 30 18 0 10 9 24 20 32 17 12 20 26 20 82 0 59 2
68 18 68 10 0 24 9 32 20 8 11 22 20 32 20 14 0 18 -8 18 -36 0 -19 6 -42 14
-50 16 -16 86 -19 86 -4 0 6 17 10 38 10 26 0 42 -6 52 -20 10 -14 26 -20 52
-20 38 0 38 0 38 40 0 22 5 40 10 40 6 0 10 9 10 20 0 16 7 20 30 20 27 0 30
-3 30 -30 0 -16 5 -30 10 -30 6 0 10 -13 10 -30 0 -16 5 -30 10 -30 6 0 10
-33 10 -79 0 -54 4 -81 13 -85 10 -5 10 -7 0 -12 -7 -3 -13 -14 -13 -24 0 -10
-6 -21 -12 -24 -10 -5 -10 -7 0 -12 14 -7 17 -64 2 -64 -5 0 -10 -9 -10 -20 0
-17 7 -20 50 -20 43 0 50 3 50 20 0 11 5 20 10 20 6 0 10 9 10 20 0 13 7 20
20 20 11 0 20 -4 20 -10 0 -5 14 -10 30 -10 17 0 30 -4 30 -10 0 -5 9 -10 19
-10 11 0 21 -6 23 -12 3 -9 9 -8 21 4 18 18 23 68 7 68 -5 0 -10 5 -10 10 0 6
14 10 30 10 17 0 30 -4 30 -10 0 -5 14 -10 30 -10 23 0 30 4 30 20 0 17 7 20
40 20 22 0 40 5 40 10 0 6 23 10 50 10 l50 0 0 60 c0 33 4 60 10 60 6 0 10 9
10 20 0 12 7 20 16 20 20 0 44 24 44 44 0 11 -9 16 -30 16 -33 0 -40 21 -16
46 23 22 66 18 66 -6 0 -11 5 -20 10 -20 6 0 10 14 10 30 0 17 5 30 10 30 6 0
10 14 10 30 0 17 5 30 10 30 15 0 13 197 -2 204 -10 5 -10 7 0 12 6 3 12 12
12 21 0 8 14 28 30 43 26 24 30 35 30 80 0 45 4 56 30 80 35 33 42 80 11 80
-11 0 -21 -5 -23 -12 -3 -8 -14 -2 -32 15 -24 24 -25 29 -12 42 8 8 31 15 50
15 33 0 36 2 36 30 0 17 5 30 10 30 6 0 10 5 10 10 0 6 -8 10 -18 10 -10 0
-24 9 -32 20 -15 21 -50 28 -50 10 0 -15 -29 -12 -46 4 -8 8 -14 21 -14 28 0
8 -9 20 -20 28 -14 10 -20 26 -20 52 0 21 3 38 6 38 3 0 19 -13 34 -30 15 -16
35 -30 44 -30 9 0 16 -4 16 -10 0 -5 14 -10 30 -10 17 0 30 -4 30 -10 0 -15
29 -12 46 4 8 8 14 31 14 50 0 29 -4 36 -20 36 -11 0 -20 5 -20 10 0 6 -9 10
-20 10 -18 0 -20 7 -20 58 0 46 4 60 20 72 16 12 20 26 20 78 0 70 -13 92 -54
92 -14 0 -26 5 -26 10 0 6 -9 10 -20 10 -11 0 -20 -4 -20 -10 0 -6 -37 -10
-90 -10 -53 0 -90 -4 -90 -10 0 -5 -9 -10 -20 -10 -13 0 -20 -7 -20 -18 0 -10
-9 -24 -20 -32 -11 -8 -20 -22 -20 -32 0 -10 -4 -18 -10 -18 -5 0 -10 7 -10
15 0 24 -46 65 -72 65 -13 0 -30 -9 -38 -20 -20 -28 -37 -25 -70 10 -15 17
-35 30 -44 30 -9 0 -16 5 -16 10 0 6 -4 10 -10 10 -5 0 -10 -9 -10 -20 0 -11
-4 -20 -10 -20 -5 0 -10 -22 -10 -50 0 -43 -3 -50 -20 -50 -13 0 -20 -7 -20
-20 0 -11 -4 -20 -10 -20 -18 0 -11 55 10 70 16 12 20 26 20 72 0 32 4 58 10
58 6 0 10 9 10 20 0 11 -4 20 -10 20 -5 0 -10 7 -10 16 0 8 -6 22 -14 30 -8 8
-22 14 -30 14 -9 0 -16 5 -16 10 0 6 -9 10 -20 10 -11 0 -20 5 -20 10 0 6 -9
10 -20 10 -16 0 -20 7 -20 30 0 17 -4 30 -10 30 -5 0 -10 7 -10 16 0 23 -25
44 -54 44 -14 0 -26 5 -26 10 0 6 -8 10 -18 10 -10 0 -24 9 -32 20 -8 11 -22
20 -32 20 -10 0 -18 5 -18 10 0 6 -8 10 -18 10 -10 0 -24 9 -32 20 -8 11 -22
20 -32 20 -10 0 -18 5 -18 10 0 6 -18 10 -40 10 -33 0 -40 3 -40 20 0 11 -4
20 -10 20 -15 0 -12 49 4 66 8 8 21 14 28 14 8 0 20 9 28 20 8 11 22 20 32 20
11 0 18 7 18 20 0 11 5 20 10 20 6 0 10 9 10 20 0 11 5 20 10 20 6 0 10 9 10
20 0 11 -4 20 -8 20 -4 0 -14 -9 -22 -20 -8 -12 -26 -20 -42 -20 -15 0 -28 -4
-28 -10 0 -5 -13 -10 -30 -10 -16 0 -30 -4 -30 -10 0 -5 -18 -10 -40 -10 -33
0 -40 3 -40 20 0 11 -4 20 -10 20 -5 0 -10 5 -10 10 0 6 9 10 20 10 11 0 20 5
20 10 0 6 7 10 16 10 42 0 59 65 24 90 -11 8 -20 20 -20 28 0 22 -48 62 -75
62 -14 0 -25 5 -25 10 0 6 -9 10 -20 10 -11 0 -20 -4 -20 -10z m910 -1070 c25
-26 47 -40 64 -40 14 0 26 -4 26 -10 0 -5 9 -10 20 -10 13 0 20 7 20 20 0 11
5 20 10 20 6 0 10 14 10 30 0 28 3 30 35 30 70 0 116 -93 65 -130 -12 -8 -20
-26 -20 -42 0 -15 -4 -28 -10 -28 -5 0 -10 -12 -10 -26 0 -37 -22 -54 -70 -54
-23 0 -48 -6 -56 -14 -16 -17 -19 -66 -4 -66 18 0 10 -31 -15 -55 -30 -31 -75
-34 -75 -5 0 12 -7 20 -16 20 -9 0 -26 10 -37 23 -13 15 -21 18 -24 10 -3 -7
-13 -13 -24 -13 -17 0 -19 8 -19 60 0 33 -4 60 -10 60 -5 0 -10 7 -10 16 0 9
-9 25 -21 35 l-21 18 26 26 c25 25 56 34 56 15 0 -5 9 -10 20 -10 11 0 20 -7
20 -15 0 -22 52 -73 58 -57 2 7 10 12 19 12 14 0 43 23 43 34 0 3 -9 6 -20 6
-12 0 -20 7 -20 16 0 8 -18 33 -40 54 -38 36 -52 70 -30 70 6 0 10 9 10 20 0
28 6 25 50 -20z"/>
<path d="M2040 3930 c0 -40 4 -70 10 -70 6 0 10 -13 10 -28 0 -16 8 -34 20
-42 38 -27 20 -110 -24 -110 -9 0 -16 -4 -16 -10 0 -5 -7 -10 -16 -10 -15 0
-44 -23 -44 -34 0 -3 9 -6 20 -6 11 0 20 -4 20 -10 0 -5 16 -10 36 -10 27 0
43 7 64 30 15 17 35 30 44 30 9 0 16 5 16 10 0 6 9 10 20 10 11 0 20 -4 20
-10 0 -21 32 -9 65 25 19 19 35 37 35 40 0 3 -30 5 -66 5 -43 0 -70 5 -80 14
-16 17 -20 106 -4 106 6 0 10 11 10 25 0 29 -59 95 -85 95 -8 0 -15 5 -15 10
0 6 -9 10 -20 10 -18 0 -20 -7 -20 -70z"/>
<path d="M2063 3415 c-46 -48 -57 -93 -29 -121 16 -16 86 -19 86 -4 0 6 7 10
16 10 8 0 22 6 30 14 16 17 19 46 4 46 -5 0 -10 9 -10 20 0 11 -4 20 -10 20
-5 0 -10 14 -10 30 0 43 -26 38 -77 -15z"/>
<path d="M3820 3230 c0 -5 -13 -10 -28 -10 -16 0 -34 -8 -42 -20 -15 -21 -50
-28 -50 -10 0 6 -13 10 -30 10 -16 0 -30 5 -30 10 0 6 -13 10 -30 10 -28 0
-30 -2 -30 -38 0 -26 6 -42 20 -52 11 -8 20 -22 20 -32 0 -10 5 -18 10 -18 6
0 10 -7 10 -16 0 -19 24 -44 42 -44 8 0 20 -9 28 -20 8 -12 26 -20 42 -20 15
0 28 -4 28 -10 0 -5 9 -10 20 -10 11 0 20 -4 20 -10 0 -6 27 -10 60 -10 33 0
60 4 60 10 0 6 23 10 50 10 28 0 50 -4 50 -10 0 -5 9 -10 20 -10 13 0 20 7 20
20 0 13 7 20 20 20 11 0 20 5 20 10 0 6 16 10 35 10 43 0 85 37 85 75 0 14 5
25 10 25 6 0 10 -4 10 -10 0 -15 77 -12 83 3 3 8 11 5 24 -10 12 -13 32 -23
47 -23 21 0 26 5 26 26 0 14 -6 32 -14 40 -17 16 -66 19 -66 4 0 -5 -4 -10
-10 -10 -5 0 -10 7 -10 16 0 8 -6 22 -14 30 -17 16 -46 19 -46 4 0 -5 -9 -10
-20 -10 -12 0 -20 7 -20 16 0 23 -25 44 -54 44 -22 0 -26 -4 -26 -30 0 -26 -4
-30 -26 -30 -26 0 -54 20 -54 40 0 6 -6 18 -14 26 -19 18 -162 20 -170 2 -5
-10 -7 -10 -12 0 -7 14 -64 17 -64 2z"/>
<path d="M3823 2415 c-17 -18 -23 -36 -23 -70 0 -25 -4 -45 -10 -45 -5 0 -10
-4 -10 -10 0 -5 23 -10 50 -10 43 0 50 -3 50 -20 0 -11 5 -20 10 -20 6 0 10
-16 10 -36 0 -27 -7 -43 -30 -64 -29 -27 -30 -31 -30 -114 0 -51 -4 -86 -10
-86 -5 0 -10 5 -10 10 0 6 -7 10 -16 10 -42 0 -59 65 -24 90 21 15 28 70 10
70 -5 0 -10 7 -10 16 0 8 -7 23 -16 31 -13 14 -17 14 -26 2 -7 -11 -11 -11
-15 -1 -2 6 -11 12 -20 12 -22 0 -43 26 -43 54 0 17 -6 26 -16 26 -20 0 -44
-24 -44 -44 0 -9 -8 -16 -20 -16 -11 0 -20 5 -20 10 0 6 -9 10 -20 10 -11 0
-20 -4 -20 -10 0 -5 -7 -10 -16 -10 -18 0 -44 -23 -44 -40 0 -6 -7 -18 -15
-26 -13 -14 -17 -14 -30 0 -17 17 -20 46 -5 46 16 0 12 109 -4 126 -22 21 -26
17 -26 -26 0 -22 -4 -40 -10 -40 -5 0 -10 -9 -10 -20 0 -13 -7 -20 -20 -20
-11 0 -20 -4 -20 -10 0 -5 -7 -10 -16 -10 -20 0 -44 -24 -44 -44 0 -9 -4 -16
-10 -16 -5 0 -10 -18 -10 -40 l0 -40 -46 0 c-35 0 -51 5 -65 22 l-19 21 -20
-23 c-17 -20 -21 -21 -35 -7 -8 9 -15 21 -15 27 0 18 -27 40 -50 40 -27 0 -70
-43 -70 -70 0 -25 51 -81 58 -62 4 14 42 16 42 2 0 -5 8 -10 18 -10 10 0 24
-9 32 -20 8 -11 22 -20 32 -20 10 0 18 -4 18 -10 0 -5 14 -10 30 -10 17 0 30
5 30 10 0 6 14 10 30 10 23 0 30 -4 30 -20 0 -16 7 -20 30 -20 17 0 30 -4 30
-10 0 -5 9 -10 19 -10 11 0 21 -6 24 -12 3 -9 11 -6 24 10 20 22 73 31 73 12
0 -5 14 -10 30 -10 17 0 30 -4 30 -10 0 -5 7 -10 16 -10 9 0 29 -13 44 -30 21
-22 37 -30 63 -30 20 0 38 6 41 13 5 10 7 10 12 0 3 -7 14 -13 25 -13 10 0 19
-4 19 -10 0 -5 9 -10 20 -10 11 0 20 -4 20 -10 0 -5 18 -10 40 -10 22 0 40 -4
40 -10 0 -5 9 -10 20 -10 11 0 20 5 20 10 0 6 9 10 19 10 11 0 22 6 25 13 5
10 7 10 12 0 3 -7 13 -13 21 -13 9 0 24 -10 34 -21 l19 -22 30 33 30 33 19
-22 c19 -21 71 -30 71 -11 0 6 9 10 20 10 11 0 20 5 20 10 0 6 14 10 30 10
l30 0 0 70 c0 40 4 70 10 70 6 0 10 9 10 20 0 17 7 20 50 20 43 0 50 3 50 20
0 11 5 20 10 20 6 0 10 5 10 10 0 6 -9 10 -20 10 -11 0 -20 5 -20 10 0 6 -7
10 -16 10 -22 0 -53 32 -36 38 19 6 15 42 -6 42 -10 0 -24 9 -32 20 -16 22
-46 27 -52 8 -3 -9 -9 -8 -21 4 -12 11 -17 34 -17 72 l0 56 -36 0 c-44 0 -64
-19 -64 -60 0 -31 37 -80 60 -80 15 0 40 -25 40 -40 0 -6 -7 -18 -15 -26 -13
-13 -18 -12 -40 10 -14 14 -25 32 -25 41 0 8 -9 15 -20 15 -13 0 -20 7 -20 20
0 11 -4 20 -10 20 -5 0 -10 9 -10 20 0 13 -7 20 -20 20 -12 0 -20 7 -20 16 0
20 -24 44 -44 44 -9 0 -16 5 -16 10 0 6 -7 10 -16 10 -26 0 -44 26 -44 64 0
20 -4 36 -10 36 -5 0 -10 9 -10 20 0 26 -10 24 -37 -5z"/>
<path d="M5480 2180 c0 -11 -4 -20 -10 -20 -5 0 -10 -9 -10 -20 0 -11 5 -20
10 -20 15 0 12 -70 -4 -86 -8 -8 -31 -14 -50 -14 -20 0 -36 -4 -36 -10 0 -5 5
-10 10 -10 6 0 10 -27 10 -60 0 -33 -4 -60 -10 -60 -5 0 -10 -12 -10 -26 0
-33 -21 -54 -54 -54 -24 0 -26 -3 -26 -50 0 -27 3 -50 6 -50 3 0 19 14 34 30
33 35 40 37 40 10 0 -13 7 -20 20 -20 17 0 20 7 20 40 0 22 5 40 10 40 6 0 10
7 10 16 0 9 14 29 30 44 29 27 30 30 30 122 0 82 2 95 20 108 15 11 20 26 20
62 0 47 -1 48 -30 48 -23 0 -30 -4 -30 -20z"/>
</g>
</svg>
